<?xml version="1.0" encoding="UTF-8" standalone="no"?><svg xmlns="http://www.w3.org/2000/svg" xmlns:xlink="http://www.w3.org/1999/xlink" contentScriptType="application/ecmascript" contentStyleType="text/css" height="822px" preserveAspectRatio="none" style="width:1373px;height:822px;" version="1.1" viewBox="0 0 1373 822" width="1373px" zoomAndPan="magnify"><defs><filter height="300%" id="ffau9f5wyusw0" width="300%" x="-1" y="-1"><feGaussianBlur result="blurOut" stdDeviation="2.0"/><feColorMatrix in="blurOut" result="blurOut2" type="matrix" values="0 0 0 0 0 0 0 0 0 0 0 0 0 0 0 0 0 0 .4 0"/><feOffset dx="4.0" dy="4.0" in="blurOut2" result="blurOut3"/><feBlend in="SourceGraphic" in2="blurOut3" mode="normal"/></filter></defs><g><!--MD5=[b3d1b7ce0b9aeb447f10a862a70f6cde]
class ICard--><rect codeLine="3" fill="#FEFECE" filter="url(#ffau9f5wyusw0)" height="117.1797" id="ICard" style="stroke:#A80036;stroke-width:1.5;" width="179" x="1012" y="35"/><ellipse cx="1081.75" cy="51" fill="#B4A7E5" rx="11" ry="11" style="stroke:#A80036;stroke-width:1.0;"/><path d="M1082.75,48 L1082.75,54 L1084.75,54 L1085.2344,54 L1085.75,54.625 L1085.75,55 L1085.75,55.375 L1085.2344,56 L1084.75,56 L1078.75,56 L1078.2656,56 L1077.75,55.375 L1077.75,55 L1077.75,54.625 L1078.2656,54 L1078.75,54 L1080.75,54 L1080.75,48 L1078.75,48 L1078.2656,48 L1077.75,47.375 L1077.75,47 L1077.75,46.625 L1078.2656,46 L1078.75,46 L1084.75,46 L1085.2344,46 L1085.75,46.625 L1085.75,47 L1085.75,47.375 L1085.2344,48 L1084.75,48 L1082.75,48 Z " fill="#000000"/><text fill="#000000" font-family="sans-serif" font-size="12" font-style="italic" lengthAdjust="spacingAndGlyphs" textLength="31" x="1102.25" y="55.9102">ICard</text><line style="stroke:#A80036;stroke-width:1.5;" x1="1013" x2="1190" y1="67" y2="67"/><text fill="#000000" font-family="sans-serif" font-size="11" lengthAdjust="spacingAndGlyphs" textLength="39" x="1018" y="82.4189">+Guid Id</text><text fill="#000000" font-family="sans-serif" font-size="11" lengthAdjust="spacingAndGlyphs" textLength="69" x="1018" y="96.2549">+float Damage</text><text fill="#000000" font-family="sans-serif" font-size="11" lengthAdjust="spacingAndGlyphs" textLength="63" x="1018" y="110.0908">+string Name</text><text fill="#000000" font-family="sans-serif" font-size="11" lengthAdjust="spacingAndGlyphs" textLength="80" x="1018" y="123.9268">+CardType Type</text><line style="stroke:#A80036;stroke-width:1.5;" x1="1013" x2="1190" y1="130.3438" y2="130.3438"/><text fill="#000000" font-family="sans-serif" font-size="11" lengthAdjust="spacingAndGlyphs" textLength="167" x="1018" y="145.7627">+float GetAttackValue(ICard other)</text><!--MD5=[ec2e26f5eb1ae873f0fbf3e905502cc3]
class AbstractCard--><rect codeLine="11" fill="#FEFECE" filter="url(#ffau9f5wyusw0)" height="117.1797" id="AbstractCard" style="stroke:#A80036;stroke-width:1.5;" width="179" x="1012" y="556"/><ellipse cx="1061.75" cy="572" fill="#ADD1B2" rx="11" ry="11" style="stroke:#A80036;stroke-width:1.0;"/><path d="M1063.75,568.5 Q1063.9531,568 1064.1875,567.75 Q1064.4219,567.5 1064.6875,567.5 Q1065.1563,567.5 1065.4531,567.7813 Q1065.75,568.0625 1065.75,568.7188 L1065.75,570.2813 Q1065.75,570.9375 1065.4688,571.2188 Q1065.1875,571.5 1064.75,571.5 Q1064.3594,571.5 1064.1094,571.3281 Q1063.8594,571.1563 1063.75,570.7031 Q1063.7031,570.3906 1063.5313,570.2188 Q1063.2188,569.8906 1062.6563,569.7031 Q1062.0938,569.5 1061.5313,569.5 Q1060.8281,569.5 1060.2344,569.7813 Q1059.6563,570.0625 1059.2031,570.6875 Q1058.75,571.3125 1058.75,572.1719 L1058.75,573.0938 Q1058.75,574.125 1059.5938,574.8125 Q1060.4375,575.5 1061.9375,575.5 Q1062.8281,575.5 1063.4531,575.2969 Q1063.8125,575.1875 1064.2188,574.8281 Q1064.4844,574.625 1064.625,574.5625 Q1064.7656,574.5 1064.9375,574.5 Q1065.2656,574.5 1065.5,574.7656 Q1065.75,575.0156 1065.75,575.375 Q1065.75,575.7188 1065.4063,576.125 Q1064.9063,576.7188 1064.1094,577.0469 Q1063.0625,577.5 1061.7813,577.5 Q1060.2813,577.5 1059.0781,576.9063 Q1058.1094,576.4375 1057.4219,575.4219 Q1056.75,574.4063 1056.75,573.2031 L1056.75,572.1094 Q1056.75,570.8594 1057.3438,569.7656 Q1057.9531,568.6719 1059,568.0938 Q1060.0625,567.5 1061.25,567.5 Q1061.9688,567.5 1062.5938,567.75 Q1063.2188,568 1063.75,568.5 Z " fill="#000000"/><text fill="#000000" font-family="sans-serif" font-size="12" lengthAdjust="spacingAndGlyphs" textLength="71" x="1082.25" y="576.9102">AbstractCard</text><line style="stroke:#A80036;stroke-width:1.5;" x1="1013" x2="1190" y1="588" y2="588"/><text fill="#000000" font-family="sans-serif" font-size="11" lengthAdjust="spacingAndGlyphs" textLength="39" x="1018" y="603.4189">+Guid Id</text><text fill="#000000" font-family="sans-serif" font-size="11" lengthAdjust="spacingAndGlyphs" textLength="69" x="1018" y="617.2549">+float Damage</text><text fill="#000000" font-family="sans-serif" font-size="11" lengthAdjust="spacingAndGlyphs" textLength="63" x="1018" y="631.0908">+string Name</text><text fill="#000000" font-family="sans-serif" font-size="11" lengthAdjust="spacingAndGlyphs" textLength="80" x="1018" y="644.9268">+CardType Type</text><line style="stroke:#A80036;stroke-width:1.5;" x1="1013" x2="1190" y1="651.3438" y2="651.3438"/><text fill="#000000" font-family="sans-serif" font-size="11" lengthAdjust="spacingAndGlyphs" textLength="167" x="1018" y="666.7627">+float GetAttackValue(ICard other)</text><!--MD5=[38a4cc4b862622ae18c211e34a8b180b]
class MonsterCard--><rect codeLine="20" fill="#FEFECE" filter="url(#ffau9f5wyusw0)" height="75.6719" id="MonsterCard" style="stroke:#A80036;stroke-width:1.5;" width="240" x="844.5" y="733"/><ellipse cx="924.75" cy="749" fill="#ADD1B2" rx="11" ry="11" style="stroke:#A80036;stroke-width:1.0;"/><path d="M926.75,745.5 Q926.9531,745 927.1875,744.75 Q927.4219,744.5 927.6875,744.5 Q928.1563,744.5 928.4531,744.7813 Q928.75,745.0625 928.75,745.7188 L928.75,747.2813 Q928.75,747.9375 928.4688,748.2188 Q928.1875,748.5 927.75,748.5 Q927.3594,748.5 927.1094,748.3281 Q926.8594,748.1563 926.75,747.7031 Q926.7031,747.3906 926.5313,747.2188 Q926.2188,746.8906 925.6563,746.7031 Q925.0938,746.5 924.5313,746.5 Q923.8281,746.5 923.2344,746.7813 Q922.6563,747.0625 922.2031,747.6875 Q921.75,748.3125 921.75,749.1719 L921.75,750.0938 Q921.75,751.125 922.5938,751.8125 Q923.4375,752.5 924.9375,752.5 Q925.8281,752.5 926.4531,752.2969 Q926.8125,752.1875 927.2188,751.8281 Q927.4844,751.625 927.625,751.5625 Q927.7656,751.5 927.9375,751.5 Q928.2656,751.5 928.5,751.7656 Q928.75,752.0156 928.75,752.375 Q928.75,752.7188 928.4063,753.125 Q927.9063,753.7188 927.1094,754.0469 Q926.0625,754.5 924.7813,754.5 Q923.2813,754.5 922.0781,753.9063 Q921.1094,753.4375 920.4219,752.4219 Q919.75,751.4063 919.75,750.2031 L919.75,749.1094 Q919.75,747.8594 920.3438,746.7656 Q920.9531,745.6719 922,745.0938 Q923.0625,744.5 924.25,744.5 Q924.9688,744.5 925.5938,744.75 Q926.2188,745 926.75,745.5 Z " fill="#000000"/><text fill="#000000" font-family="sans-serif" font-size="12" lengthAdjust="spacingAndGlyphs" textLength="71" x="945.25" y="753.9102">MonsterCard</text><line style="stroke:#A80036;stroke-width:1.5;" x1="845.5" x2="1083.5" y1="765" y2="765"/><text fill="#000000" font-family="sans-serif" font-size="11" lengthAdjust="spacingAndGlyphs" textLength="162" x="850.5" y="780.4189">-MonsterCardCreatureType _type</text><line style="stroke:#A80036;stroke-width:1.5;" x1="845.5" x2="1083.5" y1="786.8359" y2="786.8359"/><text fill="#000000" font-family="sans-serif" font-size="11" lengthAdjust="spacingAndGlyphs" textLength="228" x="850.5" y="802.2549">+MonsterCardCreatureType GetCreatureType()</text><!--MD5=[913faba1f7e322d3c5a093383d75db4f]
class MonsterCardCreatureType--><rect codeLine="24" fill="#FEFECE" filter="url(#ffau9f5wyusw0)" height="158.6875" id="MonsterCardCreatureType" style="stroke:#A80036;stroke-width:1.5;" width="177" x="7" y="14"/><ellipse cx="22" cy="30" fill="#EB937F" rx="11" ry="11" style="stroke:#A80036;stroke-width:1.0;"/><path d="M20.5,31 L20.5,33 L24.5,33 L24.5,32 L24.5,31.5156 L25.125,31 L25.5,31 L25.875,31 L26.5,31.5156 L26.5,32 L26.5,35 L18.5,35 L18.0156,35 L17.5,34.375 L17.5,34 L17.5,33.625 L18.0156,33 L18.5,33 L18.5,33 L18.5,27 L18.5,27 L18.0156,27 L17.5,26.375 L17.5,26 L17.5,25.625 L18.0156,25 L18.5,25 L26.5,25 L26.5,28 L26.5,28.4844 L25.875,29 L25.5,29 L25.125,29 L24.5,28.4844 L24.5,28 L24.5,27 L20.5,27 L20.5,29 L21.5,29 L21.5,28.5156 L21.5,28.5156 L22.125,28 L22.5,28 L22.875,28 L23.5,28.5156 L23.5,29 L23.5,31 L23.5,31.4844 L22.875,32 L22.875,32 L22.5,32 L22.125,32 L21.5,31.4844 L21.5,31.4844 L21.5,31 L20.5,31 Z " fill="#000000"/><text fill="#000000" font-family="sans-serif" font-size="12" lengthAdjust="spacingAndGlyphs" textLength="145" x="36" y="34.9102">MonsterCardCreatureType</text><line style="stroke:#A80036;stroke-width:1.5;" x1="8" x2="183" y1="46" y2="46"/><text fill="#000000" font-family="sans-serif" font-size="11" lengthAdjust="spacingAndGlyphs" textLength="33" x="13" y="61.4189">Human</text><text fill="#000000" font-family="sans-serif" font-size="11" lengthAdjust="spacingAndGlyphs" textLength="30" x="13" y="75.2549">Goblin</text><text fill="#000000" font-family="sans-serif" font-size="11" lengthAdjust="spacingAndGlyphs" textLength="34" x="13" y="89.0908">Wizard</text><text fill="#000000" font-family="sans-serif" font-size="11" lengthAdjust="spacingAndGlyphs" textLength="35" x="13" y="102.9268">Dragon</text><text fill="#000000" font-family="sans-serif" font-size="11" lengthAdjust="spacingAndGlyphs" textLength="17" x="13" y="116.7627">Ork</text><text fill="#000000" font-family="sans-serif" font-size="11" lengthAdjust="spacingAndGlyphs" textLength="30" x="13" y="130.5986">Knight</text><text fill="#000000" font-family="sans-serif" font-size="11" lengthAdjust="spacingAndGlyphs" textLength="34" x="13" y="144.4346">Kraken</text><text fill="#000000" font-family="sans-serif" font-size="11" lengthAdjust="spacingAndGlyphs" textLength="32" x="13" y="158.2705">FireElv</text><line style="stroke:#A80036;stroke-width:1.5;" x1="8" x2="183" y1="164.6875" y2="164.6875"/><!--MD5=[801abd42a1f0e3c1039de247edfe5aa8]
class SpellCard--><rect codeLine="35" fill="#FEFECE" filter="url(#ffau9f5wyusw0)" height="61.8359" id="SpellCard" style="stroke:#A80036;stroke-width:1.5;" width="239" x="1120" y="740"/><ellipse cx="1207.75" cy="756" fill="#ADD1B2" rx="11" ry="11" style="stroke:#A80036;stroke-width:1.0;"/><path d="M1209.75,752.5 Q1209.9531,752 1210.1875,751.75 Q1210.4219,751.5 1210.6875,751.5 Q1211.1563,751.5 1211.4531,751.7813 Q1211.75,752.0625 1211.75,752.7188 L1211.75,754.2813 Q1211.75,754.9375 1211.4688,755.2188 Q1211.1875,755.5 1210.75,755.5 Q1210.3594,755.5 1210.1094,755.3281 Q1209.8594,755.1563 1209.75,754.7031 Q1209.7031,754.3906 1209.5313,754.2188 Q1209.2188,753.8906 1208.6563,753.7031 Q1208.0938,753.5 1207.5313,753.5 Q1206.8281,753.5 1206.2344,753.7813 Q1205.6563,754.0625 1205.2031,754.6875 Q1204.75,755.3125 1204.75,756.1719 L1204.75,757.0938 Q1204.75,758.125 1205.5938,758.8125 Q1206.4375,759.5 1207.9375,759.5 Q1208.8281,759.5 1209.4531,759.2969 Q1209.8125,759.1875 1210.2188,758.8281 Q1210.4844,758.625 1210.625,758.5625 Q1210.7656,758.5 1210.9375,758.5 Q1211.2656,758.5 1211.5,758.7656 Q1211.75,759.0156 1211.75,759.375 Q1211.75,759.7188 1211.4063,760.125 Q1210.9063,760.7188 1210.1094,761.0469 Q1209.0625,761.5 1207.7813,761.5 Q1206.2813,761.5 1205.0781,760.9063 Q1204.1094,760.4375 1203.4219,759.4219 Q1202.75,758.4063 1202.75,757.2031 L1202.75,756.1094 Q1202.75,754.8594 1203.3438,753.7656 Q1203.9531,752.6719 1205,752.0938 Q1206.0625,751.5 1207.25,751.5 Q1207.9688,751.5 1208.5938,751.75 Q1209.2188,752 1209.75,752.5 Z " fill="#000000"/><text fill="#000000" font-family="sans-serif" font-size="12" lengthAdjust="spacingAndGlyphs" textLength="55" x="1228.25" y="760.9102">SpellCard</text><line style="stroke:#A80036;stroke-width:1.5;" x1="1121" x2="1358" y1="772" y2="772"/><line style="stroke:#A80036;stroke-width:1.5;" x1="1121" x2="1358" y1="780" y2="780"/><text fill="#000000" font-family="sans-serif" font-size="11" lengthAdjust="spacingAndGlyphs" textLength="227" x="1126" y="795.4189">+double GetEffectivenessMultiplier(ICard other)</text><!--MD5=[d16c9d3e6bca5baa0e0741a83ab0ddc0]
class CardType--><rect codeLine="38" fill="#FEFECE" filter="url(#ffau9f5wyusw0)" height="89.5078" id="CardType" style="stroke:#A80036;stroke-width:1.5;" width="85" x="219" y="48.5"/><ellipse cx="234" cy="64.5" fill="#EB937F" rx="11" ry="11" style="stroke:#A80036;stroke-width:1.0;"/><path d="M232.5,65.5 L232.5,67.5 L236.5,67.5 L236.5,66.5 L236.5,66.0156 L237.125,65.5 L237.5,65.5 L237.875,65.5 L238.5,66.0156 L238.5,66.5 L238.5,69.5 L230.5,69.5 L230.0156,69.5 L229.5,68.875 L229.5,68.5 L229.5,68.125 L230.0156,67.5 L230.5,67.5 L230.5,67.5 L230.5,61.5 L230.5,61.5 L230.0156,61.5 L229.5,60.875 L229.5,60.5 L229.5,60.125 L230.0156,59.5 L230.5,59.5 L238.5,59.5 L238.5,62.5 L238.5,62.9844 L237.875,63.5 L237.5,63.5 L237.125,63.5 L236.5,62.9844 L236.5,62.5 L236.5,61.5 L232.5,61.5 L232.5,63.5 L233.5,63.5 L233.5,63.0156 L233.5,63.0156 L234.125,62.5 L234.5,62.5 L234.875,62.5 L235.5,63.0156 L235.5,63.5 L235.5,65.5 L235.5,65.9844 L234.875,66.5 L234.875,66.5 L234.5,66.5 L234.125,66.5 L233.5,65.9844 L233.5,65.9844 L233.5,65.5 L232.5,65.5 Z " fill="#000000"/><text fill="#000000" font-family="sans-serif" font-size="12" lengthAdjust="spacingAndGlyphs" textLength="53" x="248" y="69.4102">CardType</text><line style="stroke:#A80036;stroke-width:1.5;" x1="220" x2="303" y1="80.5" y2="80.5"/><text fill="#000000" font-family="sans-serif" font-size="11" lengthAdjust="spacingAndGlyphs" textLength="33" x="225" y="95.9189">Normal</text><text fill="#000000" font-family="sans-serif" font-size="11" lengthAdjust="spacingAndGlyphs" textLength="29" x="225" y="109.7549">Water</text><text fill="#000000" font-family="sans-serif" font-size="11" lengthAdjust="spacingAndGlyphs" textLength="18" x="225" y="123.5908">Fire</text><line style="stroke:#A80036;stroke-width:1.5;" x1="220" x2="303" y1="130.0078" y2="130.0078"/><!--MD5=[3fd616f346a44cd59a91eb10b19e157c]
class User--><rect codeLine="46" fill="#FEFECE" filter="url(#ffau9f5wyusw0)" height="172.5234" id="User" style="stroke:#A80036;stroke-width:1.5;" width="111" x="339" y="7"/><ellipse cx="377.4" cy="23" fill="#ADD1B2" rx="11" ry="11" style="stroke:#A80036;stroke-width:1.0;"/><path d="M379.4,19.5 Q379.6031,19 379.8375,18.75 Q380.0719,18.5 380.3375,18.5 Q380.8063,18.5 381.1031,18.7813 Q381.4,19.0625 381.4,19.7188 L381.4,21.2813 Q381.4,21.9375 381.1188,22.2188 Q380.8375,22.5 380.4,22.5 Q380.0094,22.5 379.7594,22.3281 Q379.5094,22.1563 379.4,21.7031 Q379.3531,21.3906 379.1813,21.2188 Q378.8688,20.8906 378.3063,20.7031 Q377.7438,20.5 377.1813,20.5 Q376.4781,20.5 375.8844,20.7813 Q375.3063,21.0625 374.8531,21.6875 Q374.4,22.3125 374.4,23.1719 L374.4,24.0938 Q374.4,25.125 375.2438,25.8125 Q376.0875,26.5 377.5875,26.5 Q378.4781,26.5 379.1031,26.2969 Q379.4625,26.1875 379.8688,25.8281 Q380.1344,25.625 380.275,25.5625 Q380.4156,25.5 380.5875,25.5 Q380.9156,25.5 381.15,25.7656 Q381.4,26.0156 381.4,26.375 Q381.4,26.7188 381.0563,27.125 Q380.5563,27.7188 379.7594,28.0469 Q378.7125,28.5 377.4313,28.5 Q375.9313,28.5 374.7281,27.9063 Q373.7594,27.4375 373.0719,26.4219 Q372.4,25.4063 372.4,24.2031 L372.4,23.1094 Q372.4,21.8594 372.9938,20.7656 Q373.6031,19.6719 374.65,19.0938 Q375.7125,18.5 376.9,18.5 Q377.6188,18.5 378.2438,18.75 Q378.8688,19 379.4,19.5 Z " fill="#000000"/><text fill="#000000" font-family="sans-serif" font-size="12" lengthAdjust="spacingAndGlyphs" textLength="27" x="396.6" y="27.9102">User</text><line style="stroke:#A80036;stroke-width:1.5;" x1="340" x2="449" y1="39" y2="39"/><text fill="#000000" font-family="sans-serif" font-size="11" lengthAdjust="spacingAndGlyphs" textLength="89" x="345" y="54.4189">+string LoginName</text><text fill="#000000" font-family="sans-serif" font-size="11" lengthAdjust="spacingAndGlyphs" textLength="81" x="345" y="68.2549">+string NameTag</text><text fill="#000000" font-family="sans-serif" font-size="11" lengthAdjust="spacingAndGlyphs" textLength="51" x="345" y="82.0908">+string Bio</text><text fill="#000000" font-family="sans-serif" font-size="11" lengthAdjust="spacingAndGlyphs" textLength="67" x="345" y="95.9268">+string Status</text><text fill="#000000" font-family="sans-serif" font-size="11" lengthAdjust="spacingAndGlyphs" textLength="44" x="345" y="109.7627">+float Elo</text><text fill="#000000" font-family="sans-serif" font-size="11" lengthAdjust="spacingAndGlyphs" textLength="57" x="345" y="123.5986">+float Coins</text><text fill="#000000" font-family="sans-serif" font-size="11" lengthAdjust="spacingAndGlyphs" textLength="90" x="345" y="137.4346">+List&lt;ICard&gt; Stack</text><text fill="#000000" font-family="sans-serif" font-size="11" lengthAdjust="spacingAndGlyphs" textLength="99" x="345" y="151.2705">+List&lt;ICard&gt;[4] Deck</text><line style="stroke:#A80036;stroke-width:1.5;" x1="340" x2="449" y1="157.6875" y2="157.6875"/><text fill="#000000" font-family="sans-serif" font-size="11" lengthAdjust="spacingAndGlyphs" textLength="93" x="345" y="173.1064">+GetGameHistory()</text><!--MD5=[6197423a059df3745aafada0414fd692]
class Client / Curl Script--><rect codeLine="59" fill="#FEFECE" filter="url(#ffau9f5wyusw0)" height="227.8672" id="Client / Curl Script" style="stroke:#A80036;stroke-width:1.5;" width="146" x="22.5" y="254"/><ellipse cx="44.7" cy="270" fill="#ADD1B2" rx="11" ry="11" style="stroke:#A80036;stroke-width:1.0;"/><path d="M46.7,266.5 Q46.9031,266 47.1375,265.75 Q47.3719,265.5 47.6375,265.5 Q48.1063,265.5 48.4031,265.7813 Q48.7,266.0625 48.7,266.7188 L48.7,268.2813 Q48.7,268.9375 48.4188,269.2188 Q48.1375,269.5 47.7,269.5 Q47.3094,269.5 47.0594,269.3281 Q46.8094,269.1563 46.7,268.7031 Q46.6531,268.3906 46.4813,268.2188 Q46.1688,267.8906 45.6063,267.7031 Q45.0438,267.5 44.4813,267.5 Q43.7781,267.5 43.1844,267.7813 Q42.6063,268.0625 42.1531,268.6875 Q41.7,269.3125 41.7,270.1719 L41.7,271.0938 Q41.7,272.125 42.5438,272.8125 Q43.3875,273.5 44.8875,273.5 Q45.7781,273.5 46.4031,273.2969 Q46.7625,273.1875 47.1688,272.8281 Q47.4344,272.625 47.575,272.5625 Q47.7156,272.5 47.8875,272.5 Q48.2156,272.5 48.45,272.7656 Q48.7,273.0156 48.7,273.375 Q48.7,273.7188 48.3563,274.125 Q47.8563,274.7188 47.0594,275.0469 Q46.0125,275.5 44.7313,275.5 Q43.2313,275.5 42.0281,274.9063 Q41.0594,274.4375 40.3719,273.4219 Q39.7,272.4063 39.7,271.2031 L39.7,270.1094 Q39.7,268.8594 40.2938,267.7656 Q40.9031,266.6719 41.95,266.0938 Q43.0125,265.5 44.2,265.5 Q44.9188,265.5 45.5438,265.75 Q46.1688,266 46.7,266.5 Z " fill="#000000"/><text fill="#000000" font-family="sans-serif" font-size="12" lengthAdjust="spacingAndGlyphs" textLength="98" x="60.3" y="274.9102">Client / Curl Script</text><line style="stroke:#A80036;stroke-width:1.5;" x1="23.5" x2="167.5" y1="286" y2="286"/><line style="stroke:#A80036;stroke-width:1.5;" x1="23.5" x2="167.5" y1="294" y2="294"/><text fill="#000000" font-family="sans-serif" font-size="11" lengthAdjust="spacingAndGlyphs" textLength="54" x="28.5" y="309.4189">+Register()</text><text fill="#000000" font-family="sans-serif" font-size="11" lengthAdjust="spacingAndGlyphs" textLength="40" x="28.5" y="323.2549">+Login()</text><text fill="#000000" font-family="sans-serif" font-size="11" lengthAdjust="spacingAndGlyphs" textLength="87" x="28.5" y="337.0908">+CreatePackage()</text><text fill="#000000" font-family="sans-serif" font-size="11" lengthAdjust="spacingAndGlyphs" textLength="93" x="28.5" y="350.9268">+AcquirePackage()</text><text fill="#000000" font-family="sans-serif" font-size="11" lengthAdjust="spacingAndGlyphs" textLength="134" x="28.5" y="364.7627">+ShowAcquiredPackages()</text><text fill="#000000" font-family="sans-serif" font-size="11" lengthAdjust="spacingAndGlyphs" textLength="67" x="28.5" y="378.5986">+ShowDeck()</text><text fill="#000000" font-family="sans-serif" font-size="11" lengthAdjust="spacingAndGlyphs" textLength="85" x="28.5" y="392.4346">+ConfigureDeck()</text><text fill="#000000" font-family="sans-serif" font-size="11" lengthAdjust="spacingAndGlyphs" textLength="76" x="28.5" y="406.2705">+EditUserData()</text><text fill="#000000" font-family="sans-serif" font-size="11" lengthAdjust="spacingAndGlyphs" textLength="74" x="28.5" y="420.1064">+DisplayStats()</text><text fill="#000000" font-family="sans-serif" font-size="11" lengthAdjust="spacingAndGlyphs" textLength="106" x="28.5" y="433.9424">+DisplayScoreboard()</text><text fill="#000000" font-family="sans-serif" font-size="11" lengthAdjust="spacingAndGlyphs" textLength="41" x="28.5" y="447.7783">+Battle()</text><text fill="#000000" font-family="sans-serif" font-size="11" lengthAdjust="spacingAndGlyphs" textLength="104" x="28.5" y="461.6143">+DisplayTradeDeals()</text><text fill="#000000" font-family="sans-serif" font-size="11" lengthAdjust="spacingAndGlyphs" textLength="103" x="28.5" y="475.4502">+CreateTradingDeal()</text><!--MD5=[f4a1549148b57c5305fbb95453e36625]
class TradeDeal--><rect codeLine="76" fill="#FEFECE" filter="url(#ffau9f5wyusw0)" height="131.0156" id="TradeDeal" style="stroke:#A80036;stroke-width:1.5;" width="397" x="204" y="302.5"/><ellipse cx="369.25" cy="318.5" fill="#ADD1B2" rx="11" ry="11" style="stroke:#A80036;stroke-width:1.0;"/><path d="M371.25,315 Q371.4531,314.5 371.6875,314.25 Q371.9219,314 372.1875,314 Q372.6563,314 372.9531,314.2813 Q373.25,314.5625 373.25,315.2188 L373.25,316.7813 Q373.25,317.4375 372.9688,317.7188 Q372.6875,318 372.25,318 Q371.8594,318 371.6094,317.8281 Q371.3594,317.6563 371.25,317.2031 Q371.2031,316.8906 371.0313,316.7188 Q370.7188,316.3906 370.1563,316.2031 Q369.5938,316 369.0313,316 Q368.3281,316 367.7344,316.2813 Q367.1563,316.5625 366.7031,317.1875 Q366.25,317.8125 366.25,318.6719 L366.25,319.5938 Q366.25,320.625 367.0938,321.3125 Q367.9375,322 369.4375,322 Q370.3281,322 370.9531,321.7969 Q371.3125,321.6875 371.7188,321.3281 Q371.9844,321.125 372.125,321.0625 Q372.2656,321 372.4375,321 Q372.7656,321 373,321.2656 Q373.25,321.5156 373.25,321.875 Q373.25,322.2188 372.9063,322.625 Q372.4063,323.2188 371.6094,323.5469 Q370.5625,324 369.2813,324 Q367.7813,324 366.5781,323.4063 Q365.6094,322.9375 364.9219,321.9219 Q364.25,320.9063 364.25,319.7031 L364.25,318.6094 Q364.25,317.3594 364.8438,316.2656 Q365.4531,315.1719 366.5,314.5938 Q367.5625,314 368.75,314 Q369.4688,314 370.0938,314.25 Q370.7188,314.5 371.25,315 Z " fill="#000000"/><text fill="#000000" font-family="sans-serif" font-size="12" lengthAdjust="spacingAndGlyphs" textLength="58" x="389.75" y="323.4102">TradeDeal</text><line style="stroke:#A80036;stroke-width:1.5;" x1="205" x2="600" y1="334.5" y2="334.5"/><text fill="#000000" font-family="sans-serif" font-size="11" lengthAdjust="spacingAndGlyphs" textLength="37" x="210" y="349.9189">-Guid Id</text><text fill="#000000" font-family="sans-serif" font-size="11" lengthAdjust="spacingAndGlyphs" textLength="82" x="210" y="363.7549">-string username</text><text fill="#000000" font-family="sans-serif" font-size="11" lengthAdjust="spacingAndGlyphs" textLength="61" x="210" y="377.5908">-ICard _Card</text><text fill="#000000" font-family="sans-serif" font-size="11" lengthAdjust="spacingAndGlyphs" textLength="121" x="210" y="391.4268">-CardType _WantedType</text><text fill="#000000" font-family="sans-serif" font-size="11" lengthAdjust="spacingAndGlyphs" textLength="89" x="210" y="405.2627">-float _MinDamage</text><line style="stroke:#A80036;stroke-width:1.5;" x1="205" x2="600" y1="411.6797" y2="411.6797"/><text fill="#000000" font-family="sans-serif" font-size="11" lengthAdjust="spacingAndGlyphs" textLength="385" x="210" y="427.0986">+TradeDeal(string id, string username, ICard card, CardType type, float minDmg)</text><!--MD5=[c60af77fe5573b84a4aa4bce89659574]
class Server--><rect codeLine="85" fill="#FEFECE" filter="url(#ffau9f5wyusw0)" height="255.5391" id="Server" style="stroke:#A80036;stroke-width:1.5;" width="412" x="636.5" y="240"/><ellipse cx="820.75" cy="256" fill="#ADD1B2" rx="11" ry="11" style="stroke:#A80036;stroke-width:1.0;"/><path d="M822.75,252.5 Q822.9531,252 823.1875,251.75 Q823.4219,251.5 823.6875,251.5 Q824.1563,251.5 824.4531,251.7813 Q824.75,252.0625 824.75,252.7188 L824.75,254.2813 Q824.75,254.9375 824.4688,255.2188 Q824.1875,255.5 823.75,255.5 Q823.3594,255.5 823.1094,255.3281 Q822.8594,255.1563 822.75,254.7031 Q822.7031,254.3906 822.5313,254.2188 Q822.2188,253.8906 821.6563,253.7031 Q821.0938,253.5 820.5313,253.5 Q819.8281,253.5 819.2344,253.7813 Q818.6563,254.0625 818.2031,254.6875 Q817.75,255.3125 817.75,256.1719 L817.75,257.0938 Q817.75,258.125 818.5938,258.8125 Q819.4375,259.5 820.9375,259.5 Q821.8281,259.5 822.4531,259.2969 Q822.8125,259.1875 823.2188,258.8281 Q823.4844,258.625 823.625,258.5625 Q823.7656,258.5 823.9375,258.5 Q824.2656,258.5 824.5,258.7656 Q824.75,259.0156 824.75,259.375 Q824.75,259.7188 824.4063,260.125 Q823.9063,260.7188 823.1094,261.0469 Q822.0625,261.5 820.7813,261.5 Q819.2813,261.5 818.0781,260.9063 Q817.1094,260.4375 816.4219,259.4219 Q815.75,258.4063 815.75,257.2031 L815.75,256.1094 Q815.75,254.8594 816.3438,253.7656 Q816.9531,252.6719 818,252.0938 Q819.0625,251.5 820.25,251.5 Q820.9688,251.5 821.5938,251.75 Q822.2188,252 822.75,252.5 Z " fill="#000000"/><text fill="#000000" font-family="sans-serif" font-size="12" lengthAdjust="spacingAndGlyphs" textLength="35" x="841.25" y="260.9102">Server</text><line style="stroke:#A80036;stroke-width:1.5;" x1="637.5" x2="1047.5" y1="272" y2="272"/><text fill="#000000" font-family="sans-serif" font-size="11" lengthAdjust="spacingAndGlyphs" textLength="93" x="642.5" y="287.4189">-List&lt;User&gt; _users</text><text fill="#000000" font-family="sans-serif" font-size="11" lengthAdjust="spacingAndGlyphs" textLength="137" x="642.5" y="301.2549">-List&lt;User&gt; _usersLoggedIn</text><text fill="#000000" font-family="sans-serif" font-size="11" lengthAdjust="spacingAndGlyphs" textLength="131" x="642.5" y="315.0908">-Dict&lt;string, User&gt; _tokens</text><text fill="#000000" font-family="sans-serif" font-size="11" lengthAdjust="spacingAndGlyphs" textLength="164" x="642.5" y="328.9268">-List&lt;ICard[5]&gt; AvailablePackages</text><text fill="#000000" font-family="sans-serif" font-size="11" lengthAdjust="spacingAndGlyphs" textLength="140" x="642.5" y="342.7627">-List&lt;TradeDeal&gt; TradeDeals</text><line style="stroke:#A80036;stroke-width:1.5;" x1="637.5" x2="1047.5" y1="349.1797" y2="349.1797"/><text fill="#000000" font-family="sans-serif" font-size="11" lengthAdjust="spacingAndGlyphs" textLength="234" x="642.5" y="364.5986">+string Login(string username, string password)</text><text fill="#000000" font-family="sans-serif" font-size="11" lengthAdjust="spacingAndGlyphs" textLength="400" x="642.5" y="378.4346">+string Register(string username, string password, optional: NameTag, Bio, Status)</text><text fill="#000000" font-family="sans-serif" font-size="11" lengthAdjust="spacingAndGlyphs" textLength="155" x="642.5" y="392.2705">+bool VerifyToken(string Token)</text><text fill="#000000" font-family="sans-serif" font-size="11" lengthAdjust="spacingAndGlyphs" textLength="168" x="642.5" y="406.1064">+string QueueForGame(User user)</text><text fill="#000000" font-family="sans-serif" font-size="11" lengthAdjust="spacingAndGlyphs" textLength="194" x="642.5" y="419.9424">+string SimulateGame(User u1, User u2)</text><text fill="#000000" font-family="sans-serif" font-size="11" lengthAdjust="spacingAndGlyphs" textLength="118" x="642.5" y="433.7783">+string GetStats(User u)</text><text fill="#000000" font-family="sans-serif" font-size="11" lengthAdjust="spacingAndGlyphs" textLength="118" x="642.5" y="447.6143">+string GetScoreboard()</text><text fill="#000000" font-family="sans-serif" font-size="11" lengthAdjust="spacingAndGlyphs" textLength="243" x="642.5" y="461.4502">+string RegisterCardForTrade(user u, Guid cardId)</text><text fill="#000000" font-family="sans-serif" font-size="11" lengthAdjust="spacingAndGlyphs" textLength="128" x="642.5" y="475.2861">+string GetAllTradeDeals()</text><text fill="#000000" font-family="sans-serif" font-size="11" lengthAdjust="spacingAndGlyphs" textLength="224" x="642.5" y="489.1221">+string TradeCard(string cardId, string tradeId)</text><!--MD5=[35732ce94d73a1e5a4fef6749b9d4968]
reverse link ICard to AbstractCard--><path codeLine="18" d="M1101.5,172.23 C1101.5,277.27 1101.5,462.12 1101.5,555.72 " fill="none" id="ICard-backto-AbstractCard" style="stroke:#A80036;stroke-width:1.0;"/><polygon fill="none" points="1094.5,172.03,1101.5,152.03,1108.5,172.03,1094.5,172.03" style="stroke:#A80036;stroke-width:1.0;"/><!--MD5=[7c74489b18a44a96cdf5796d590d71dd]
reverse link AbstractCard to MonsterCard--><path codeLine="43" d="M1037.02,688.22 C1023.4,703.58 1009.57,719.18 997.69,732.58 " fill="none" id="AbstractCard-backto-MonsterCard" style="stroke:#A80036;stroke-width:1.0;"/><polygon fill="none" points="1031.98,683.35,1050.49,673.03,1042.45,692.64,1031.98,683.35" style="stroke:#A80036;stroke-width:1.0;"/><!--MD5=[eccd8531726fd3d2a5b16f9bcd92e070]
reverse link AbstractCard to SpellCard--><path codeLine="44" d="M1166.39,688.15 C1182.65,706.36 1199.22,724.9 1212.46,739.73 " fill="none" id="AbstractCard-backto-SpellCard" style="stroke:#A80036;stroke-width:1.0;"/><polygon fill="none" points="1160.99,692.61,1152.89,673.03,1171.43,683.28,1160.99,692.61" style="stroke:#A80036;stroke-width:1.0;"/><!--MD5=[072c11591247d7dff7beca7f4304b577]
link MonsterCardCreatureType to CardType--><!--MD5=[37edb988ad6bc0838838b4024f001986]
link CardType to User--><!--MD5=[89519860ce28ecd358ac7aaa6450b371]
link MonsterCardCreatureType to Client / Curl Script--><!--MD5=[f39dcb8709eb5fabf4d5bd6853c6d7bc]
link Client / Curl Script to TradeDeal--><!--MD5=[e08b7e72a50fe7ab1da257f132e3ff0a]
link TradeDeal to Server--><!--MD5=[9d0d78b5e7c78b3f6add0135b7129da0]
@startuml
skinparam classAttributeIconSize 0

Interface ICard{
 +Guid Id
 +float Damage
 +string Name
 +CardType Type
 +float GetAttackValue(ICard other)
}

class AbstractCard{
 +Guid Id
 +float Damage
 +string Name
 +CardType Type
 +float GetAttackValue(ICard other)
}
ICard <|- - - AbstractCard

class MonsterCard{
 -MonsterCardCreatureType _type
 +MonsterCardCreatureType GetCreatureType()
}
enum MonsterCardCreatureType{
 Human
 Goblin
 Wizard
 Dragon
 Ork
 Knight
 Kraken
 FireElv
}

class SpellCard{
 +double GetEffectivenessMultiplier(ICard other)
}
enum CardType{
 Normal
 Water
 Fire
}
AbstractCard <|- - MonsterCard
AbstractCard <|- - SpellCard

class User{
 +string LoginName
 +string NameTag
 +string Bio
 +string Status
 +float Elo
 +float Coins
 +List<ICard> Stack
 +GetGameHistory()
 +List<ICard>[4] Deck
}


class "Client / Curl Script"{
 +Register()
 +Login()
 +CreatePackage()
 +AcquirePackage()
 +ShowAcquiredPackages()
 +ShowDeck()
 +ConfigureDeck()
 +EditUserData()
 +DisplayStats()
 +DisplayScoreboard()
 +Battle()
 +DisplayTradeDeals()
 +CreateTradingDeal() 
}


class TradeDeal {
 -Guid Id
 -string username
 -ICard _Card
 -CardType _WantedType
 -float _MinDamage
 +TradeDeal(string id, string username, ICard card, CardType type, float minDmg)
}

class Server{
 -List<User> _users
 -List<User> _usersLoggedIn
 -Dict<string, User> _tokens
 -List<ICard[5]> AvailablePackages
 -List<TradeDeal> TradeDeals
 +string Login(string username, string password)
 +string Register(string username, string password, optional: NameTag, Bio, Status)
 +bool VerifyToken(string Token)
 +string QueueForGame(User user)
 +string SimulateGame(User u1, User u2)
 +string GetStats(User u)
 +string GetScoreboard()
 +string RegisterCardForTrade(user u, Guid cardId)
 +string GetAllTradeDeals()
 +string TradeCard(string cardId, string tradeId)
 
}

@enduml

PlantUML version 1.2020.23(Sun Dec 13 20:14:58 CET 2020)
(GPL source distribution)
Java Runtime: OpenJDK Runtime Environment
JVM: OpenJDK 64-Bit Server VM
Default Encoding: Cp1252
Language: en
Country: US
--></g></svg>