<?xml version="1.0" encoding="UTF-8" standalone="no"?><svg xmlns="http://www.w3.org/2000/svg" xmlns:xlink="http://www.w3.org/1999/xlink" contentScriptType="application/ecmascript" contentStyleType="text/css" height="897px" preserveAspectRatio="none" style="width:1176px;height:897px;" version="1.1" viewBox="0 0 1176 897" width="1176px" zoomAndPan="magnify"><defs><filter height="300%" id="f19qt9yerrn213" width="300%" x="-1" y="-1"><feGaussianBlur result="blurOut" stdDeviation="2.0"/><feColorMatrix in="blurOut" result="blurOut2" type="matrix" values="0 0 0 0 0 0 0 0 0 0 0 0 0 0 0 0 0 0 .4 0"/><feOffset dx="4.0" dy="4.0" in="blurOut2" result="blurOut3"/><feBlend in="SourceGraphic" in2="blurOut3" mode="normal"/></filter></defs><g><!--MD5=[b3d1b7ce0b9aeb447f10a862a70f6cde]
class ICard--><rect codeLine="3" fill="#FEFECE" filter="url(#f19qt9yerrn213)" height="117.1797" id="ICard" style="stroke:#A80036;stroke-width:1.5;" width="179" x="815" y="62.5"/><ellipse cx="884.75" cy="78.5" fill="#B4A7E5" rx="11" ry="11" style="stroke:#A80036;stroke-width:1.0;"/><path d="M885.75,75.5 L885.75,81.5 L887.75,81.5 L888.2344,81.5 L888.75,82.125 L888.75,82.5 L888.75,82.875 L888.2344,83.5 L887.75,83.5 L881.75,83.5 L881.2656,83.5 L880.75,82.875 L880.75,82.5 L880.75,82.125 L881.2656,81.5 L881.75,81.5 L883.75,81.5 L883.75,75.5 L881.75,75.5 L881.2656,75.5 L880.75,74.875 L880.75,74.5 L880.75,74.125 L881.2656,73.5 L881.75,73.5 L887.75,73.5 L888.2344,73.5 L888.75,74.125 L888.75,74.5 L888.75,74.875 L888.2344,75.5 L887.75,75.5 L885.75,75.5 Z " fill="#000000"/><text fill="#000000" font-family="sans-serif" font-size="12" font-style="italic" lengthAdjust="spacingAndGlyphs" textLength="31" x="905.25" y="83.4102">ICard</text><line style="stroke:#A80036;stroke-width:1.5;" x1="816" x2="993" y1="94.5" y2="94.5"/><text fill="#000000" font-family="sans-serif" font-size="11" lengthAdjust="spacingAndGlyphs" textLength="39" x="821" y="109.9189">+Guid Id</text><text fill="#000000" font-family="sans-serif" font-size="11" lengthAdjust="spacingAndGlyphs" textLength="69" x="821" y="123.7549">+float Damage</text><text fill="#000000" font-family="sans-serif" font-size="11" lengthAdjust="spacingAndGlyphs" textLength="63" x="821" y="137.5908">+string Name</text><text fill="#000000" font-family="sans-serif" font-size="11" lengthAdjust="spacingAndGlyphs" textLength="80" x="821" y="151.4268">+CardType Type</text><line style="stroke:#A80036;stroke-width:1.5;" x1="816" x2="993" y1="157.8438" y2="157.8438"/><text fill="#000000" font-family="sans-serif" font-size="11" lengthAdjust="spacingAndGlyphs" textLength="167" x="821" y="173.2627">+float GetAttackValue(ICard other)</text><!--MD5=[ec2e26f5eb1ae873f0fbf3e905502cc3]
class AbstractCard--><rect codeLine="11" fill="#FEFECE" filter="url(#f19qt9yerrn213)" height="117.1797" id="AbstractCard" style="stroke:#A80036;stroke-width:1.5;" width="179" x="815" y="630"/><ellipse cx="864.75" cy="646" fill="#ADD1B2" rx="11" ry="11" style="stroke:#A80036;stroke-width:1.0;"/><path d="M866.75,642.5 Q866.9531,642 867.1875,641.75 Q867.4219,641.5 867.6875,641.5 Q868.1563,641.5 868.4531,641.7813 Q868.75,642.0625 868.75,642.7188 L868.75,644.2813 Q868.75,644.9375 868.4688,645.2188 Q868.1875,645.5 867.75,645.5 Q867.3594,645.5 867.1094,645.3281 Q866.8594,645.1563 866.75,644.7031 Q866.7031,644.3906 866.5313,644.2188 Q866.2188,643.8906 865.6563,643.7031 Q865.0938,643.5 864.5313,643.5 Q863.8281,643.5 863.2344,643.7813 Q862.6563,644.0625 862.2031,644.6875 Q861.75,645.3125 861.75,646.1719 L861.75,647.0938 Q861.75,648.125 862.5938,648.8125 Q863.4375,649.5 864.9375,649.5 Q865.8281,649.5 866.4531,649.2969 Q866.8125,649.1875 867.2188,648.8281 Q867.4844,648.625 867.625,648.5625 Q867.7656,648.5 867.9375,648.5 Q868.2656,648.5 868.5,648.7656 Q868.75,649.0156 868.75,649.375 Q868.75,649.7188 868.4063,650.125 Q867.9063,650.7188 867.1094,651.0469 Q866.0625,651.5 864.7813,651.5 Q863.2813,651.5 862.0781,650.9063 Q861.1094,650.4375 860.4219,649.4219 Q859.75,648.4063 859.75,647.2031 L859.75,646.1094 Q859.75,644.8594 860.3438,643.7656 Q860.9531,642.6719 862,642.0938 Q863.0625,641.5 864.25,641.5 Q864.9688,641.5 865.5938,641.75 Q866.2188,642 866.75,642.5 Z " fill="#000000"/><text fill="#000000" font-family="sans-serif" font-size="12" lengthAdjust="spacingAndGlyphs" textLength="71" x="885.25" y="650.9102">AbstractCard</text><line style="stroke:#A80036;stroke-width:1.5;" x1="816" x2="993" y1="662" y2="662"/><text fill="#000000" font-family="sans-serif" font-size="11" lengthAdjust="spacingAndGlyphs" textLength="39" x="821" y="677.4189">+Guid Id</text><text fill="#000000" font-family="sans-serif" font-size="11" lengthAdjust="spacingAndGlyphs" textLength="69" x="821" y="691.2549">+float Damage</text><text fill="#000000" font-family="sans-serif" font-size="11" lengthAdjust="spacingAndGlyphs" textLength="63" x="821" y="705.0908">+string Name</text><text fill="#000000" font-family="sans-serif" font-size="11" lengthAdjust="spacingAndGlyphs" textLength="80" x="821" y="718.9268">+CardType Type</text><line style="stroke:#A80036;stroke-width:1.5;" x1="816" x2="993" y1="725.3438" y2="725.3438"/><text fill="#000000" font-family="sans-serif" font-size="11" lengthAdjust="spacingAndGlyphs" textLength="167" x="821" y="740.7627">+float GetAttackValue(ICard other)</text><!--MD5=[38a4cc4b862622ae18c211e34a8b180b]
class MonsterCard--><rect codeLine="20" fill="#FEFECE" filter="url(#f19qt9yerrn213)" height="75.6719" id="MonsterCard" style="stroke:#A80036;stroke-width:1.5;" width="240" x="647.5" y="808"/><ellipse cx="727.75" cy="824" fill="#ADD1B2" rx="11" ry="11" style="stroke:#A80036;stroke-width:1.0;"/><path d="M729.75,820.5 Q729.9531,820 730.1875,819.75 Q730.4219,819.5 730.6875,819.5 Q731.1563,819.5 731.4531,819.7813 Q731.75,820.0625 731.75,820.7188 L731.75,822.2813 Q731.75,822.9375 731.4688,823.2188 Q731.1875,823.5 730.75,823.5 Q730.3594,823.5 730.1094,823.3281 Q729.8594,823.1563 729.75,822.7031 Q729.7031,822.3906 729.5313,822.2188 Q729.2188,821.8906 728.6563,821.7031 Q728.0938,821.5 727.5313,821.5 Q726.8281,821.5 726.2344,821.7813 Q725.6563,822.0625 725.2031,822.6875 Q724.75,823.3125 724.75,824.1719 L724.75,825.0938 Q724.75,826.125 725.5938,826.8125 Q726.4375,827.5 727.9375,827.5 Q728.8281,827.5 729.4531,827.2969 Q729.8125,827.1875 730.2188,826.8281 Q730.4844,826.625 730.625,826.5625 Q730.7656,826.5 730.9375,826.5 Q731.2656,826.5 731.5,826.7656 Q731.75,827.0156 731.75,827.375 Q731.75,827.7188 731.4063,828.125 Q730.9063,828.7188 730.1094,829.0469 Q729.0625,829.5 727.7813,829.5 Q726.2813,829.5 725.0781,828.9063 Q724.1094,828.4375 723.4219,827.4219 Q722.75,826.4063 722.75,825.2031 L722.75,824.1094 Q722.75,822.8594 723.3438,821.7656 Q723.9531,820.6719 725,820.0938 Q726.0625,819.5 727.25,819.5 Q727.9688,819.5 728.5938,819.75 Q729.2188,820 729.75,820.5 Z " fill="#000000"/><text fill="#000000" font-family="sans-serif" font-size="12" lengthAdjust="spacingAndGlyphs" textLength="71" x="748.25" y="828.9102">MonsterCard</text><line style="stroke:#A80036;stroke-width:1.5;" x1="648.5" x2="886.5" y1="840" y2="840"/><text fill="#000000" font-family="sans-serif" font-size="11" lengthAdjust="spacingAndGlyphs" textLength="162" x="653.5" y="855.4189">-MonsterCardCreatureType _type</text><line style="stroke:#A80036;stroke-width:1.5;" x1="648.5" x2="886.5" y1="861.8359" y2="861.8359"/><text fill="#000000" font-family="sans-serif" font-size="11" lengthAdjust="spacingAndGlyphs" textLength="228" x="653.5" y="877.2549">+MonsterCardCreatureType GetCreatureType()</text><!--MD5=[913faba1f7e322d3c5a093383d75db4f]
class MonsterCardCreatureType--><rect codeLine="24" fill="#FEFECE" filter="url(#f19qt9yerrn213)" height="158.6875" id="MonsterCardCreatureType" style="stroke:#A80036;stroke-width:1.5;" width="177" x="117" y="41.5"/><ellipse cx="132" cy="57.5" fill="#EB937F" rx="11" ry="11" style="stroke:#A80036;stroke-width:1.0;"/><path d="M130.5,58.5 L130.5,60.5 L134.5,60.5 L134.5,59.5 L134.5,59.0156 L135.125,58.5 L135.5,58.5 L135.875,58.5 L136.5,59.0156 L136.5,59.5 L136.5,62.5 L128.5,62.5 L128.0156,62.5 L127.5,61.875 L127.5,61.5 L127.5,61.125 L128.0156,60.5 L128.5,60.5 L128.5,60.5 L128.5,54.5 L128.5,54.5 L128.0156,54.5 L127.5,53.875 L127.5,53.5 L127.5,53.125 L128.0156,52.5 L128.5,52.5 L136.5,52.5 L136.5,55.5 L136.5,55.9844 L135.875,56.5 L135.5,56.5 L135.125,56.5 L134.5,55.9844 L134.5,55.5 L134.5,54.5 L130.5,54.5 L130.5,56.5 L131.5,56.5 L131.5,56.0156 L131.5,56.0156 L132.125,55.5 L132.5,55.5 L132.875,55.5 L133.5,56.0156 L133.5,56.5 L133.5,58.5 L133.5,58.9844 L132.875,59.5 L132.875,59.5 L132.5,59.5 L132.125,59.5 L131.5,58.9844 L131.5,58.9844 L131.5,58.5 L130.5,58.5 Z " fill="#000000"/><text fill="#000000" font-family="sans-serif" font-size="12" lengthAdjust="spacingAndGlyphs" textLength="145" x="146" y="62.4102">MonsterCardCreatureType</text><line style="stroke:#A80036;stroke-width:1.5;" x1="118" x2="293" y1="73.5" y2="73.5"/><text fill="#000000" font-family="sans-serif" font-size="11" lengthAdjust="spacingAndGlyphs" textLength="33" x="123" y="88.9189">Human</text><text fill="#000000" font-family="sans-serif" font-size="11" lengthAdjust="spacingAndGlyphs" textLength="30" x="123" y="102.7549">Goblin</text><text fill="#000000" font-family="sans-serif" font-size="11" lengthAdjust="spacingAndGlyphs" textLength="34" x="123" y="116.5908">Wizard</text><text fill="#000000" font-family="sans-serif" font-size="11" lengthAdjust="spacingAndGlyphs" textLength="35" x="123" y="130.4268">Dragon</text><text fill="#000000" font-family="sans-serif" font-size="11" lengthAdjust="spacingAndGlyphs" textLength="17" x="123" y="144.2627">Ork</text><text fill="#000000" font-family="sans-serif" font-size="11" lengthAdjust="spacingAndGlyphs" textLength="30" x="123" y="158.0986">Knight</text><text fill="#000000" font-family="sans-serif" font-size="11" lengthAdjust="spacingAndGlyphs" textLength="34" x="123" y="171.9346">Kraken</text><text fill="#000000" font-family="sans-serif" font-size="11" lengthAdjust="spacingAndGlyphs" textLength="32" x="123" y="185.7705">FireElv</text><line style="stroke:#A80036;stroke-width:1.5;" x1="118" x2="293" y1="192.1875" y2="192.1875"/><!--MD5=[801abd42a1f0e3c1039de247edfe5aa8]
class SpellCard--><rect codeLine="35" fill="#FEFECE" filter="url(#f19qt9yerrn213)" height="61.8359" id="SpellCard" style="stroke:#A80036;stroke-width:1.5;" width="239" x="923" y="815"/><ellipse cx="1010.75" cy="831" fill="#ADD1B2" rx="11" ry="11" style="stroke:#A80036;stroke-width:1.0;"/><path d="M1012.75,827.5 Q1012.9531,827 1013.1875,826.75 Q1013.4219,826.5 1013.6875,826.5 Q1014.1563,826.5 1014.4531,826.7813 Q1014.75,827.0625 1014.75,827.7188 L1014.75,829.2813 Q1014.75,829.9375 1014.4688,830.2188 Q1014.1875,830.5 1013.75,830.5 Q1013.3594,830.5 1013.1094,830.3281 Q1012.8594,830.1563 1012.75,829.7031 Q1012.7031,829.3906 1012.5313,829.2188 Q1012.2188,828.8906 1011.6563,828.7031 Q1011.0938,828.5 1010.5313,828.5 Q1009.8281,828.5 1009.2344,828.7813 Q1008.6563,829.0625 1008.2031,829.6875 Q1007.75,830.3125 1007.75,831.1719 L1007.75,832.0938 Q1007.75,833.125 1008.5938,833.8125 Q1009.4375,834.5 1010.9375,834.5 Q1011.8281,834.5 1012.4531,834.2969 Q1012.8125,834.1875 1013.2188,833.8281 Q1013.4844,833.625 1013.625,833.5625 Q1013.7656,833.5 1013.9375,833.5 Q1014.2656,833.5 1014.5,833.7656 Q1014.75,834.0156 1014.75,834.375 Q1014.75,834.7188 1014.4063,835.125 Q1013.9063,835.7188 1013.1094,836.0469 Q1012.0625,836.5 1010.7813,836.5 Q1009.2813,836.5 1008.0781,835.9063 Q1007.1094,835.4375 1006.4219,834.4219 Q1005.75,833.4063 1005.75,832.2031 L1005.75,831.1094 Q1005.75,829.8594 1006.3438,828.7656 Q1006.9531,827.6719 1008,827.0938 Q1009.0625,826.5 1010.25,826.5 Q1010.9688,826.5 1011.5938,826.75 Q1012.2188,827 1012.75,827.5 Z " fill="#000000"/><text fill="#000000" font-family="sans-serif" font-size="12" lengthAdjust="spacingAndGlyphs" textLength="55" x="1031.25" y="835.9102">SpellCard</text><line style="stroke:#A80036;stroke-width:1.5;" x1="924" x2="1161" y1="847" y2="847"/><line style="stroke:#A80036;stroke-width:1.5;" x1="924" x2="1161" y1="855" y2="855"/><text fill="#000000" font-family="sans-serif" font-size="11" lengthAdjust="spacingAndGlyphs" textLength="227" x="929" y="870.4189">+double GetEffectivenessMultiplier(ICard other)</text><!--MD5=[d16c9d3e6bca5baa0e0741a83ab0ddc0]
class CardType--><rect codeLine="38" fill="#FEFECE" filter="url(#f19qt9yerrn213)" height="89.5078" id="CardType" style="stroke:#A80036;stroke-width:1.5;" width="85" x="329" y="76"/><ellipse cx="344" cy="92" fill="#EB937F" rx="11" ry="11" style="stroke:#A80036;stroke-width:1.0;"/><path d="M342.5,93 L342.5,95 L346.5,95 L346.5,94 L346.5,93.5156 L347.125,93 L347.5,93 L347.875,93 L348.5,93.5156 L348.5,94 L348.5,97 L340.5,97 L340.0156,97 L339.5,96.375 L339.5,96 L339.5,95.625 L340.0156,95 L340.5,95 L340.5,95 L340.5,89 L340.5,89 L340.0156,89 L339.5,88.375 L339.5,88 L339.5,87.625 L340.0156,87 L340.5,87 L348.5,87 L348.5,90 L348.5,90.4844 L347.875,91 L347.5,91 L347.125,91 L346.5,90.4844 L346.5,90 L346.5,89 L342.5,89 L342.5,91 L343.5,91 L343.5,90.5156 L343.5,90.5156 L344.125,90 L344.5,90 L344.875,90 L345.5,90.5156 L345.5,91 L345.5,93 L345.5,93.4844 L344.875,94 L344.875,94 L344.5,94 L344.125,94 L343.5,93.4844 L343.5,93.4844 L343.5,93 L342.5,93 Z " fill="#000000"/><text fill="#000000" font-family="sans-serif" font-size="12" lengthAdjust="spacingAndGlyphs" textLength="53" x="358" y="96.9102">CardType</text><line style="stroke:#A80036;stroke-width:1.5;" x1="330" x2="413" y1="108" y2="108"/><text fill="#000000" font-family="sans-serif" font-size="11" lengthAdjust="spacingAndGlyphs" textLength="33" x="335" y="123.4189">Normal</text><text fill="#000000" font-family="sans-serif" font-size="11" lengthAdjust="spacingAndGlyphs" textLength="29" x="335" y="137.2549">Water</text><text fill="#000000" font-family="sans-serif" font-size="11" lengthAdjust="spacingAndGlyphs" textLength="18" x="335" y="151.0908">Fire</text><line style="stroke:#A80036;stroke-width:1.5;" x1="330" x2="413" y1="157.5078" y2="157.5078"/><!--MD5=[3fd616f346a44cd59a91eb10b19e157c]
class User--><rect codeLine="46" fill="#FEFECE" filter="url(#f19qt9yerrn213)" height="172.5234" id="User" style="stroke:#A80036;stroke-width:1.5;" width="111" x="1029" y="34.5"/><ellipse cx="1067.4" cy="50.5" fill="#ADD1B2" rx="11" ry="11" style="stroke:#A80036;stroke-width:1.0;"/><path d="M1069.4,47 Q1069.6031,46.5 1069.8375,46.25 Q1070.0719,46 1070.3375,46 Q1070.8063,46 1071.1031,46.2813 Q1071.4,46.5625 1071.4,47.2188 L1071.4,48.7813 Q1071.4,49.4375 1071.1188,49.7188 Q1070.8375,50 1070.4,50 Q1070.0094,50 1069.7594,49.8281 Q1069.5094,49.6563 1069.4,49.2031 Q1069.3531,48.8906 1069.1813,48.7188 Q1068.8688,48.3906 1068.3063,48.2031 Q1067.7438,48 1067.1813,48 Q1066.4781,48 1065.8844,48.2813 Q1065.3063,48.5625 1064.8531,49.1875 Q1064.4,49.8125 1064.4,50.6719 L1064.4,51.5938 Q1064.4,52.625 1065.2438,53.3125 Q1066.0875,54 1067.5875,54 Q1068.4781,54 1069.1031,53.7969 Q1069.4625,53.6875 1069.8688,53.3281 Q1070.1344,53.125 1070.275,53.0625 Q1070.4156,53 1070.5875,53 Q1070.9156,53 1071.15,53.2656 Q1071.4,53.5156 1071.4,53.875 Q1071.4,54.2188 1071.0563,54.625 Q1070.5563,55.2188 1069.7594,55.5469 Q1068.7125,56 1067.4313,56 Q1065.9313,56 1064.7281,55.4063 Q1063.7594,54.9375 1063.0719,53.9219 Q1062.4,52.9063 1062.4,51.7031 L1062.4,50.6094 Q1062.4,49.3594 1062.9938,48.2656 Q1063.6031,47.1719 1064.65,46.5938 Q1065.7125,46 1066.9,46 Q1067.6188,46 1068.2438,46.25 Q1068.8688,46.5 1069.4,47 Z " fill="#000000"/><text fill="#000000" font-family="sans-serif" font-size="12" lengthAdjust="spacingAndGlyphs" textLength="27" x="1086.6" y="55.4102">User</text><line style="stroke:#A80036;stroke-width:1.5;" x1="1030" x2="1139" y1="66.5" y2="66.5"/><text fill="#000000" font-family="sans-serif" font-size="11" lengthAdjust="spacingAndGlyphs" textLength="89" x="1035" y="81.9189">+string LoginName</text><text fill="#000000" font-family="sans-serif" font-size="11" lengthAdjust="spacingAndGlyphs" textLength="81" x="1035" y="95.7549">+string NameTag</text><text fill="#000000" font-family="sans-serif" font-size="11" lengthAdjust="spacingAndGlyphs" textLength="51" x="1035" y="109.5908">+string Bio</text><text fill="#000000" font-family="sans-serif" font-size="11" lengthAdjust="spacingAndGlyphs" textLength="67" x="1035" y="123.4268">+string Status</text><text fill="#000000" font-family="sans-serif" font-size="11" lengthAdjust="spacingAndGlyphs" textLength="44" x="1035" y="137.2627">+float Elo</text><text fill="#000000" font-family="sans-serif" font-size="11" lengthAdjust="spacingAndGlyphs" textLength="57" x="1035" y="151.0986">+float Coins</text><text fill="#000000" font-family="sans-serif" font-size="11" lengthAdjust="spacingAndGlyphs" textLength="90" x="1035" y="164.9346">+List&lt;ICard&gt; Stack</text><text fill="#000000" font-family="sans-serif" font-size="11" lengthAdjust="spacingAndGlyphs" textLength="99" x="1035" y="178.7705">+List&lt;ICard&gt;[4] Deck</text><line style="stroke:#A80036;stroke-width:1.5;" x1="1030" x2="1139" y1="185.1875" y2="185.1875"/><text fill="#000000" font-family="sans-serif" font-size="11" lengthAdjust="spacingAndGlyphs" textLength="93" x="1035" y="200.6064">+GetGameHistory()</text><!--MD5=[30299a58ba6b78debaaed5ddbb42f29a]
class Deck--><rect codeLine="59" fill="#FEFECE" filter="url(#f19qt9yerrn213)" height="89.5078" id="Deck" style="stroke:#A80036;stroke-width:1.5;" width="65" x="1052" y="396"/><ellipse cx="1069.25" cy="412" fill="#ADD1B2" rx="11" ry="11" style="stroke:#A80036;stroke-width:1.0;"/><path d="M1071.25,408.5 Q1071.4531,408 1071.6875,407.75 Q1071.9219,407.5 1072.1875,407.5 Q1072.6563,407.5 1072.9531,407.7813 Q1073.25,408.0625 1073.25,408.7188 L1073.25,410.2813 Q1073.25,410.9375 1072.9688,411.2188 Q1072.6875,411.5 1072.25,411.5 Q1071.8594,411.5 1071.6094,411.3281 Q1071.3594,411.1563 1071.25,410.7031 Q1071.2031,410.3906 1071.0313,410.2188 Q1070.7188,409.8906 1070.1563,409.7031 Q1069.5938,409.5 1069.0313,409.5 Q1068.3281,409.5 1067.7344,409.7813 Q1067.1563,410.0625 1066.7031,410.6875 Q1066.25,411.3125 1066.25,412.1719 L1066.25,413.0938 Q1066.25,414.125 1067.0938,414.8125 Q1067.9375,415.5 1069.4375,415.5 Q1070.3281,415.5 1070.9531,415.2969 Q1071.3125,415.1875 1071.7188,414.8281 Q1071.9844,414.625 1072.125,414.5625 Q1072.2656,414.5 1072.4375,414.5 Q1072.7656,414.5 1073,414.7656 Q1073.25,415.0156 1073.25,415.375 Q1073.25,415.7188 1072.9063,416.125 Q1072.4063,416.7188 1071.6094,417.0469 Q1070.5625,417.5 1069.2813,417.5 Q1067.7813,417.5 1066.5781,416.9063 Q1065.6094,416.4375 1064.9219,415.4219 Q1064.25,414.4063 1064.25,413.2031 L1064.25,412.1094 Q1064.25,410.8594 1064.8438,409.7656 Q1065.4531,408.6719 1066.5,408.0938 Q1067.5625,407.5 1068.75,407.5 Q1069.4688,407.5 1070.0938,407.75 Q1070.7188,408 1071.25,408.5 Z " fill="#000000"/><text fill="#000000" font-family="sans-serif" font-size="12" lengthAdjust="spacingAndGlyphs" textLength="28" x="1083.75" y="416.9102">Deck</text><line style="stroke:#A80036;stroke-width:1.5;" x1="1053" x2="1116" y1="428" y2="428"/><text fill="#000000" font-family="sans-serif" font-size="11" lengthAdjust="spacingAndGlyphs" textLength="43" x="1058" y="443.4189">-cardList</text><line style="stroke:#A80036;stroke-width:1.5;" x1="1053" x2="1116" y1="449.8359" y2="449.8359"/><text fill="#000000" font-family="sans-serif" font-size="11" lengthAdjust="spacingAndGlyphs" textLength="34" x="1058" y="465.2549">+Add()</text><text fill="#000000" font-family="sans-serif" font-size="11" lengthAdjust="spacingAndGlyphs" textLength="53" x="1058" y="479.0908">+Remove()</text><!--MD5=[6197423a059df3745aafada0414fd692]
class Client / Curl Script--><rect codeLine="65" fill="#FEFECE" filter="url(#f19qt9yerrn213)" height="227.8672" id="Client / Curl Script" style="stroke:#A80036;stroke-width:1.5;" width="146" x="449.5" y="7"/><ellipse cx="471.7" cy="23" fill="#ADD1B2" rx="11" ry="11" style="stroke:#A80036;stroke-width:1.0;"/><path d="M473.7,19.5 Q473.9031,19 474.1375,18.75 Q474.3719,18.5 474.6375,18.5 Q475.1063,18.5 475.4031,18.7813 Q475.7,19.0625 475.7,19.7188 L475.7,21.2813 Q475.7,21.9375 475.4188,22.2188 Q475.1375,22.5 474.7,22.5 Q474.3094,22.5 474.0594,22.3281 Q473.8094,22.1563 473.7,21.7031 Q473.6531,21.3906 473.4813,21.2188 Q473.1688,20.8906 472.6063,20.7031 Q472.0438,20.5 471.4813,20.5 Q470.7781,20.5 470.1844,20.7813 Q469.6063,21.0625 469.1531,21.6875 Q468.7,22.3125 468.7,23.1719 L468.7,24.0938 Q468.7,25.125 469.5438,25.8125 Q470.3875,26.5 471.8875,26.5 Q472.7781,26.5 473.4031,26.2969 Q473.7625,26.1875 474.1688,25.8281 Q474.4344,25.625 474.575,25.5625 Q474.7156,25.5 474.8875,25.5 Q475.2156,25.5 475.45,25.7656 Q475.7,26.0156 475.7,26.375 Q475.7,26.7188 475.3563,27.125 Q474.8563,27.7188 474.0594,28.0469 Q473.0125,28.5 471.7313,28.5 Q470.2313,28.5 469.0281,27.9063 Q468.0594,27.4375 467.3719,26.4219 Q466.7,25.4063 466.7,24.2031 L466.7,23.1094 Q466.7,21.8594 467.2938,20.7656 Q467.9031,19.6719 468.95,19.0938 Q470.0125,18.5 471.2,18.5 Q471.9188,18.5 472.5438,18.75 Q473.1688,19 473.7,19.5 Z " fill="#000000"/><text fill="#000000" font-family="sans-serif" font-size="12" lengthAdjust="spacingAndGlyphs" textLength="98" x="487.3" y="27.9102">Client / Curl Script</text><line style="stroke:#A80036;stroke-width:1.5;" x1="450.5" x2="594.5" y1="39" y2="39"/><line style="stroke:#A80036;stroke-width:1.5;" x1="450.5" x2="594.5" y1="47" y2="47"/><text fill="#000000" font-family="sans-serif" font-size="11" lengthAdjust="spacingAndGlyphs" textLength="54" x="455.5" y="62.4189">+Register()</text><text fill="#000000" font-family="sans-serif" font-size="11" lengthAdjust="spacingAndGlyphs" textLength="40" x="455.5" y="76.2549">+Login()</text><text fill="#000000" font-family="sans-serif" font-size="11" lengthAdjust="spacingAndGlyphs" textLength="87" x="455.5" y="90.0908">+CreatePackage()</text><text fill="#000000" font-family="sans-serif" font-size="11" lengthAdjust="spacingAndGlyphs" textLength="93" x="455.5" y="103.9268">+AcquirePackage()</text><text fill="#000000" font-family="sans-serif" font-size="11" lengthAdjust="spacingAndGlyphs" textLength="134" x="455.5" y="117.7627">+ShowAcquiredPackages()</text><text fill="#000000" font-family="sans-serif" font-size="11" lengthAdjust="spacingAndGlyphs" textLength="67" x="455.5" y="131.5986">+ShowDeck()</text><text fill="#000000" font-family="sans-serif" font-size="11" lengthAdjust="spacingAndGlyphs" textLength="85" x="455.5" y="145.4346">+ConfigureDeck()</text><text fill="#000000" font-family="sans-serif" font-size="11" lengthAdjust="spacingAndGlyphs" textLength="76" x="455.5" y="159.2705">+EditUserData()</text><text fill="#000000" font-family="sans-serif" font-size="11" lengthAdjust="spacingAndGlyphs" textLength="74" x="455.5" y="173.1064">+DisplayStats()</text><text fill="#000000" font-family="sans-serif" font-size="11" lengthAdjust="spacingAndGlyphs" textLength="106" x="455.5" y="186.9424">+DisplayScoreboard()</text><text fill="#000000" font-family="sans-serif" font-size="11" lengthAdjust="spacingAndGlyphs" textLength="41" x="455.5" y="200.7783">+Battle()</text><text fill="#000000" font-family="sans-serif" font-size="11" lengthAdjust="spacingAndGlyphs" textLength="104" x="455.5" y="214.6143">+DisplayTradeDeals()</text><text fill="#000000" font-family="sans-serif" font-size="11" lengthAdjust="spacingAndGlyphs" textLength="103" x="455.5" y="228.4502">+CreateTradingDeal()</text><!--MD5=[f4a1549148b57c5305fbb95453e36625]
class TradeDeal--><rect codeLine="82" fill="#FEFECE" filter="url(#f19qt9yerrn213)" height="131.0156" id="TradeDeal" style="stroke:#A80036;stroke-width:1.5;" width="397" x="7" y="375.5"/><ellipse cx="172.25" cy="391.5" fill="#ADD1B2" rx="11" ry="11" style="stroke:#A80036;stroke-width:1.0;"/><path d="M174.25,388 Q174.4531,387.5 174.6875,387.25 Q174.9219,387 175.1875,387 Q175.6563,387 175.9531,387.2813 Q176.25,387.5625 176.25,388.2188 L176.25,389.7813 Q176.25,390.4375 175.9688,390.7188 Q175.6875,391 175.25,391 Q174.8594,391 174.6094,390.8281 Q174.3594,390.6563 174.25,390.2031 Q174.2031,389.8906 174.0313,389.7188 Q173.7188,389.3906 173.1563,389.2031 Q172.5938,389 172.0313,389 Q171.3281,389 170.7344,389.2813 Q170.1563,389.5625 169.7031,390.1875 Q169.25,390.8125 169.25,391.6719 L169.25,392.5938 Q169.25,393.625 170.0938,394.3125 Q170.9375,395 172.4375,395 Q173.3281,395 173.9531,394.7969 Q174.3125,394.6875 174.7188,394.3281 Q174.9844,394.125 175.125,394.0625 Q175.2656,394 175.4375,394 Q175.7656,394 176,394.2656 Q176.25,394.5156 176.25,394.875 Q176.25,395.2188 175.9063,395.625 Q175.4063,396.2188 174.6094,396.5469 Q173.5625,397 172.2813,397 Q170.7813,397 169.5781,396.4063 Q168.6094,395.9375 167.9219,394.9219 Q167.25,393.9063 167.25,392.7031 L167.25,391.6094 Q167.25,390.3594 167.8438,389.2656 Q168.4531,388.1719 169.5,387.5938 Q170.5625,387 171.75,387 Q172.4688,387 173.0938,387.25 Q173.7188,387.5 174.25,388 Z " fill="#000000"/><text fill="#000000" font-family="sans-serif" font-size="12" lengthAdjust="spacingAndGlyphs" textLength="58" x="192.75" y="396.4102">TradeDeal</text><line style="stroke:#A80036;stroke-width:1.5;" x1="8" x2="403" y1="407.5" y2="407.5"/><text fill="#000000" font-family="sans-serif" font-size="11" lengthAdjust="spacingAndGlyphs" textLength="37" x="13" y="422.9189">-Guid Id</text><text fill="#000000" font-family="sans-serif" font-size="11" lengthAdjust="spacingAndGlyphs" textLength="82" x="13" y="436.7549">-string username</text><text fill="#000000" font-family="sans-serif" font-size="11" lengthAdjust="spacingAndGlyphs" textLength="61" x="13" y="450.5908">-ICard _Card</text><text fill="#000000" font-family="sans-serif" font-size="11" lengthAdjust="spacingAndGlyphs" textLength="121" x="13" y="464.4268">-CardType _WantedType</text><text fill="#000000" font-family="sans-serif" font-size="11" lengthAdjust="spacingAndGlyphs" textLength="89" x="13" y="478.2627">-float _MinDamage</text><line style="stroke:#A80036;stroke-width:1.5;" x1="8" x2="403" y1="484.6797" y2="484.6797"/><text fill="#000000" font-family="sans-serif" font-size="11" lengthAdjust="spacingAndGlyphs" textLength="385" x="13" y="500.0986">+TradeDeal(string id, string username, ICard card, CardType type, float minDmg)</text><!--MD5=[c60af77fe5573b84a4aa4bce89659574]
class Server--><rect codeLine="91" fill="#FEFECE" filter="url(#f19qt9yerrn213)" height="255.5391" id="Server" style="stroke:#A80036;stroke-width:1.5;" width="412" x="439.5" y="313"/><ellipse cx="623.75" cy="329" fill="#ADD1B2" rx="11" ry="11" style="stroke:#A80036;stroke-width:1.0;"/><path d="M625.75,325.5 Q625.9531,325 626.1875,324.75 Q626.4219,324.5 626.6875,324.5 Q627.1563,324.5 627.4531,324.7813 Q627.75,325.0625 627.75,325.7188 L627.75,327.2813 Q627.75,327.9375 627.4688,328.2188 Q627.1875,328.5 626.75,328.5 Q626.3594,328.5 626.1094,328.3281 Q625.8594,328.1563 625.75,327.7031 Q625.7031,327.3906 625.5313,327.2188 Q625.2188,326.8906 624.6563,326.7031 Q624.0938,326.5 623.5313,326.5 Q622.8281,326.5 622.2344,326.7813 Q621.6563,327.0625 621.2031,327.6875 Q620.75,328.3125 620.75,329.1719 L620.75,330.0938 Q620.75,331.125 621.5938,331.8125 Q622.4375,332.5 623.9375,332.5 Q624.8281,332.5 625.4531,332.2969 Q625.8125,332.1875 626.2188,331.8281 Q626.4844,331.625 626.625,331.5625 Q626.7656,331.5 626.9375,331.5 Q627.2656,331.5 627.5,331.7656 Q627.75,332.0156 627.75,332.375 Q627.75,332.7188 627.4063,333.125 Q626.9063,333.7188 626.1094,334.0469 Q625.0625,334.5 623.7813,334.5 Q622.2813,334.5 621.0781,333.9063 Q620.1094,333.4375 619.4219,332.4219 Q618.75,331.4063 618.75,330.2031 L618.75,329.1094 Q618.75,327.8594 619.3438,326.7656 Q619.9531,325.6719 621,325.0938 Q622.0625,324.5 623.25,324.5 Q623.9688,324.5 624.5938,324.75 Q625.2188,325 625.75,325.5 Z " fill="#000000"/><text fill="#000000" font-family="sans-serif" font-size="12" lengthAdjust="spacingAndGlyphs" textLength="35" x="644.25" y="333.9102">Server</text><line style="stroke:#A80036;stroke-width:1.5;" x1="440.5" x2="850.5" y1="345" y2="345"/><text fill="#000000" font-family="sans-serif" font-size="11" lengthAdjust="spacingAndGlyphs" textLength="93" x="445.5" y="360.4189">-List&lt;User&gt; _users</text><text fill="#000000" font-family="sans-serif" font-size="11" lengthAdjust="spacingAndGlyphs" textLength="137" x="445.5" y="374.2549">-List&lt;User&gt; _usersLoggedIn</text><text fill="#000000" font-family="sans-serif" font-size="11" lengthAdjust="spacingAndGlyphs" textLength="131" x="445.5" y="388.0908">-Dict&lt;string, User&gt; _tokens</text><text fill="#000000" font-family="sans-serif" font-size="11" lengthAdjust="spacingAndGlyphs" textLength="164" x="445.5" y="401.9268">-List&lt;ICard[5]&gt; AvailablePackages</text><text fill="#000000" font-family="sans-serif" font-size="11" lengthAdjust="spacingAndGlyphs" textLength="140" x="445.5" y="415.7627">-List&lt;TradeDeal&gt; TradeDeals</text><line style="stroke:#A80036;stroke-width:1.5;" x1="440.5" x2="850.5" y1="422.1797" y2="422.1797"/><text fill="#000000" font-family="sans-serif" font-size="11" lengthAdjust="spacingAndGlyphs" textLength="234" x="445.5" y="437.5986">+string Login(string username, string password)</text><text fill="#000000" font-family="sans-serif" font-size="11" lengthAdjust="spacingAndGlyphs" textLength="400" x="445.5" y="451.4346">+string Register(string username, string password, optional: NameTag, Bio, Status)</text><text fill="#000000" font-family="sans-serif" font-size="11" lengthAdjust="spacingAndGlyphs" textLength="155" x="445.5" y="465.2705">+bool VerifyToken(string Token)</text><text fill="#000000" font-family="sans-serif" font-size="11" lengthAdjust="spacingAndGlyphs" textLength="168" x="445.5" y="479.1064">+string QueueForGame(User user)</text><text fill="#000000" font-family="sans-serif" font-size="11" lengthAdjust="spacingAndGlyphs" textLength="194" x="445.5" y="492.9424">+string SimulateGame(User u1, User u2)</text><text fill="#000000" font-family="sans-serif" font-size="11" lengthAdjust="spacingAndGlyphs" textLength="118" x="445.5" y="506.7783">+string GetStats(User u)</text><text fill="#000000" font-family="sans-serif" font-size="11" lengthAdjust="spacingAndGlyphs" textLength="118" x="445.5" y="520.6143">+string GetScoreboard()</text><text fill="#000000" font-family="sans-serif" font-size="11" lengthAdjust="spacingAndGlyphs" textLength="243" x="445.5" y="534.4502">+string RegisterCardForTrade(user u, Guid cardId)</text><text fill="#000000" font-family="sans-serif" font-size="11" lengthAdjust="spacingAndGlyphs" textLength="128" x="445.5" y="548.2861">+string GetAllTradeDeals()</text><text fill="#000000" font-family="sans-serif" font-size="11" lengthAdjust="spacingAndGlyphs" textLength="224" x="445.5" y="562.1221">+string TradeCard(string cardId, string tradeId)</text><!--MD5=[35732ce94d73a1e5a4fef6749b9d4968]
reverse link ICard to AbstractCard--><path codeLine="18" d="M904.5,199.88 C904.5,314.87 904.5,527.45 904.5,629.66 " fill="none" id="ICard-backto-AbstractCard" style="stroke:#A80036;stroke-width:1.0;"/><polygon fill="none" points="897.5,199.6,904.5,179.6,911.5,199.6,897.5,199.6" style="stroke:#A80036;stroke-width:1.0;"/><!--MD5=[7c74489b18a44a96cdf5796d590d71dd]
reverse link AbstractCard to MonsterCard--><path codeLine="43" d="M839.9,762.82 C826.16,778.42 812.21,794.25 800.28,807.8 " fill="none" id="AbstractCard-backto-MonsterCard" style="stroke:#A80036;stroke-width:1.0;"/><polygon fill="none" points="835.01,757.78,853.49,747.4,845.52,767.04,835.01,757.78" style="stroke:#A80036;stroke-width:1.0;"/><!--MD5=[eccd8531726fd3d2a5b16f9bcd92e070]
reverse link AbstractCard to SpellCard--><path codeLine="44" d="M969.25,762.46 C985.72,781.01 1002.5,799.93 1015.85,814.97 " fill="none" id="AbstractCard-backto-SpellCard" style="stroke:#A80036;stroke-width:1.0;"/><polygon fill="none" points="963.93,767.01,955.89,747.4,974.4,757.71,963.93,767.01" style="stroke:#A80036;stroke-width:1.0;"/><!--MD5=[295358262e66031ee55dc73b57b77dec]
reverse link User to Deck--><path codeLine="57" d="M1084.5,220.7 C1084.5,279.3 1084.5,350.73 1084.5,395.8 " fill="none" id="User-backto-Deck" style="stroke:#A80036;stroke-width:1.0;"/><polygon fill="#A80036" points="1084.5,207.64,1080.5,213.64,1084.5,219.64,1088.5,213.64,1084.5,207.64" style="stroke:#A80036;stroke-width:1.0;"/><text fill="#000000" font-family="sans-serif" font-size="13" lengthAdjust="spacingAndGlyphs" textLength="21" x="1085.5" y="279.4951">has</text><text fill="#000000" font-family="sans-serif" font-size="13" lengthAdjust="spacingAndGlyphs" textLength="7" x="1077.232" y="228.4127">1</text><text fill="#000000" font-family="sans-serif" font-size="13" lengthAdjust="spacingAndGlyphs" textLength="7" x="1076.9641" y="385.2135">5</text><!--MD5=[072c11591247d7dff7beca7f4304b577]
link MonsterCardCreatureType to CardType--><!--MD5=[cca3a1def36f9ec6a55091a9d3b38ab0]
link CardType to Client / Curl Script--><!--MD5=[3a034532c1edeabcb4f65c019ec35acb]
link MonsterCardCreatureType to TradeDeal--><!--MD5=[e08b7e72a50fe7ab1da257f132e3ff0a]
link TradeDeal to Server--><!--MD5=[48140ddefdba3c2acb10b6c51a20d85e]
@startuml
skinparam classAttributeIconSize 0

Interface ICard{
 +Guid Id
 +float Damage
 +string Name
 +CardType Type
 +float GetAttackValue(ICard other)
}

class AbstractCard{
 +Guid Id
 +float Damage
 +string Name
 +CardType Type
 +float GetAttackValue(ICard other)
}
ICard <|- - - AbstractCard

class MonsterCard{
 -MonsterCardCreatureType _type
 +MonsterCardCreatureType GetCreatureType()
}
enum MonsterCardCreatureType{
 Human
 Goblin
 Wizard
 Dragon
 Ork
 Knight
 Kraken
 FireElv
}

class SpellCard{
 +double GetEffectivenessMultiplier(ICard other)
}
enum CardType{
 Normal
 Water
 Fire
}
AbstractCard <|- - MonsterCard
AbstractCard <|- - SpellCard

class User{
 +string LoginName
 +string NameTag
 +string Bio
 +string Status
 +float Elo
 +float Coins
 +List<ICard> Stack
 +GetGameHistory()
 +List<ICard>[4] Deck
}
User "1" *- - "5" Deck: has

class Deck {
 -cardList
 +Add()
 +Remove()
}

class "Client / Curl Script"{
 +Register()
 +Login()
 +CreatePackage()
 +AcquirePackage()
 +ShowAcquiredPackages()
 +ShowDeck()
 +ConfigureDeck()
 +EditUserData()
 +DisplayStats()
 +DisplayScoreboard()
 +Battle()
 +DisplayTradeDeals()
 +CreateTradingDeal() 
}


class TradeDeal {
 -Guid Id
 -string username
 -ICard _Card
 -CardType _WantedType
 -float _MinDamage
 +TradeDeal(string id, string username, ICard card, CardType type, float minDmg)
}

class Server{
 -List<User> _users
 -List<User> _usersLoggedIn
 -Dict<string, User> _tokens
 -List<ICard[5]> AvailablePackages
 -List<TradeDeal> TradeDeals
 +string Login(string username, string password)
 +string Register(string username, string password, optional: NameTag, Bio, Status)
 +bool VerifyToken(string Token)
 +string QueueForGame(User user)
 +string SimulateGame(User u1, User u2)
 +string GetStats(User u)
 +string GetScoreboard()
 +string RegisterCardForTrade(user u, Guid cardId)
 +string GetAllTradeDeals()
 +string TradeCard(string cardId, string tradeId)
 
}

@enduml

PlantUML version 1.2020.23(Sun Dec 13 20:14:58 CET 2020)
(GPL source distribution)
Java Runtime: OpenJDK Runtime Environment
JVM: OpenJDK 64-Bit Server VM
Default Encoding: Cp1252
Language: en
Country: US
--></g></svg>