<?xml version="1.0" encoding="UTF-8" standalone="no"?><svg xmlns="http://www.w3.org/2000/svg" xmlns:xlink="http://www.w3.org/1999/xlink" contentScriptType="application/ecmascript" contentStyleType="text/css" height="822px" preserveAspectRatio="none" style="width:1383px;height:822px;" version="1.1" viewBox="0 0 1383 822" width="1383px" zoomAndPan="magnify"><defs><filter height="300%" id="fe04hzye3adrc" width="300%" x="-1" y="-1"><feGaussianBlur result="blurOut" stdDeviation="2.0"/><feColorMatrix in="blurOut" result="blurOut2" type="matrix" values="0 0 0 0 0 0 0 0 0 0 0 0 0 0 0 0 0 0 .4 0"/><feOffset dx="4.0" dy="4.0" in="blurOut2" result="blurOut3"/><feBlend in="SourceGraphic" in2="blurOut3" mode="normal"/></filter></defs><g><!--MD5=[b3d1b7ce0b9aeb447f10a862a70f6cde]
class ICard--><rect codeLine="3" fill="#FEFECE" filter="url(#fe04hzye3adrc)" height="117.1797" id="ICard" style="stroke:#A80036;stroke-width:1.5;" width="190" x="1016.5" y="35"/><ellipse cx="1091.75" cy="51" fill="#B4A7E5" rx="11" ry="11" style="stroke:#A80036;stroke-width:1.0;"/><path d="M1092.75,48 L1092.75,54 L1094.75,54 L1095.2344,54 L1095.75,54.625 L1095.75,55 L1095.75,55.375 L1095.2344,56 L1094.75,56 L1088.75,56 L1088.2656,56 L1087.75,55.375 L1087.75,55 L1087.75,54.625 L1088.2656,54 L1088.75,54 L1090.75,54 L1090.75,48 L1088.75,48 L1088.2656,48 L1087.75,47.375 L1087.75,47 L1087.75,46.625 L1088.2656,46 L1088.75,46 L1094.75,46 L1095.2344,46 L1095.75,46.625 L1095.75,47 L1095.75,47.375 L1095.2344,48 L1094.75,48 L1092.75,48 Z " fill="#000000"/><text fill="#000000" font-family="sans-serif" font-size="12" font-style="italic" lengthAdjust="spacingAndGlyphs" textLength="31" x="1112.25" y="55.9102">ICard</text><line style="stroke:#A80036;stroke-width:1.5;" x1="1017.5" x2="1205.5" y1="67" y2="67"/><text fill="#000000" font-family="sans-serif" font-size="11" lengthAdjust="spacingAndGlyphs" textLength="39" x="1022.5" y="82.4189">+Guid Id</text><text fill="#000000" font-family="sans-serif" font-size="11" lengthAdjust="spacingAndGlyphs" textLength="80" x="1022.5" y="96.2549">+double Damage</text><text fill="#000000" font-family="sans-serif" font-size="11" lengthAdjust="spacingAndGlyphs" textLength="63" x="1022.5" y="110.0908">+string Name</text><text fill="#000000" font-family="sans-serif" font-size="11" lengthAdjust="spacingAndGlyphs" textLength="80" x="1022.5" y="123.9268">+CardType Type</text><line style="stroke:#A80036;stroke-width:1.5;" x1="1017.5" x2="1205.5" y1="130.3438" y2="130.3438"/><text fill="#000000" font-family="sans-serif" font-size="11" lengthAdjust="spacingAndGlyphs" textLength="178" x="1022.5" y="145.7627">+double GetAttackValue(ICard other)</text><!--MD5=[ec2e26f5eb1ae873f0fbf3e905502cc3]
class AbstractCard--><rect codeLine="11" fill="#FEFECE" filter="url(#fe04hzye3adrc)" height="117.1797" id="AbstractCard" style="stroke:#A80036;stroke-width:1.5;" width="190" x="1016.5" y="556"/><ellipse cx="1071.75" cy="572" fill="#ADD1B2" rx="11" ry="11" style="stroke:#A80036;stroke-width:1.0;"/><path d="M1073.75,568.5 Q1073.9531,568 1074.1875,567.75 Q1074.4219,567.5 1074.6875,567.5 Q1075.1563,567.5 1075.4531,567.7813 Q1075.75,568.0625 1075.75,568.7188 L1075.75,570.2813 Q1075.75,570.9375 1075.4688,571.2188 Q1075.1875,571.5 1074.75,571.5 Q1074.3594,571.5 1074.1094,571.3281 Q1073.8594,571.1563 1073.75,570.7031 Q1073.7031,570.3906 1073.5313,570.2188 Q1073.2188,569.8906 1072.6563,569.7031 Q1072.0938,569.5 1071.5313,569.5 Q1070.8281,569.5 1070.2344,569.7813 Q1069.6563,570.0625 1069.2031,570.6875 Q1068.75,571.3125 1068.75,572.1719 L1068.75,573.0938 Q1068.75,574.125 1069.5938,574.8125 Q1070.4375,575.5 1071.9375,575.5 Q1072.8281,575.5 1073.4531,575.2969 Q1073.8125,575.1875 1074.2188,574.8281 Q1074.4844,574.625 1074.625,574.5625 Q1074.7656,574.5 1074.9375,574.5 Q1075.2656,574.5 1075.5,574.7656 Q1075.75,575.0156 1075.75,575.375 Q1075.75,575.7188 1075.4063,576.125 Q1074.9063,576.7188 1074.1094,577.0469 Q1073.0625,577.5 1071.7813,577.5 Q1070.2813,577.5 1069.0781,576.9063 Q1068.1094,576.4375 1067.4219,575.4219 Q1066.75,574.4063 1066.75,573.2031 L1066.75,572.1094 Q1066.75,570.8594 1067.3438,569.7656 Q1067.9531,568.6719 1069,568.0938 Q1070.0625,567.5 1071.25,567.5 Q1071.9688,567.5 1072.5938,567.75 Q1073.2188,568 1073.75,568.5 Z " fill="#000000"/><text fill="#000000" font-family="sans-serif" font-size="12" lengthAdjust="spacingAndGlyphs" textLength="71" x="1092.25" y="576.9102">AbstractCard</text><line style="stroke:#A80036;stroke-width:1.5;" x1="1017.5" x2="1205.5" y1="588" y2="588"/><text fill="#000000" font-family="sans-serif" font-size="11" lengthAdjust="spacingAndGlyphs" textLength="39" x="1022.5" y="603.4189">+Guid Id</text><text fill="#000000" font-family="sans-serif" font-size="11" lengthAdjust="spacingAndGlyphs" textLength="80" x="1022.5" y="617.2549">+double Damage</text><text fill="#000000" font-family="sans-serif" font-size="11" lengthAdjust="spacingAndGlyphs" textLength="63" x="1022.5" y="631.0908">+string Name</text><text fill="#000000" font-family="sans-serif" font-size="11" lengthAdjust="spacingAndGlyphs" textLength="80" x="1022.5" y="644.9268">+CardType Type</text><line style="stroke:#A80036;stroke-width:1.5;" x1="1017.5" x2="1205.5" y1="651.3438" y2="651.3438"/><text fill="#000000" font-family="sans-serif" font-size="11" lengthAdjust="spacingAndGlyphs" textLength="178" x="1022.5" y="666.7627">+double GetAttackValue(ICard other)</text><!--MD5=[38a4cc4b862622ae18c211e34a8b180b]
class MonsterCard--><rect codeLine="20" fill="#FEFECE" filter="url(#fe04hzye3adrc)" height="75.6719" id="MonsterCard" style="stroke:#A80036;stroke-width:1.5;" width="240" x="854.5" y="733"/><ellipse cx="934.75" cy="749" fill="#ADD1B2" rx="11" ry="11" style="stroke:#A80036;stroke-width:1.0;"/><path d="M936.75,745.5 Q936.9531,745 937.1875,744.75 Q937.4219,744.5 937.6875,744.5 Q938.1563,744.5 938.4531,744.7813 Q938.75,745.0625 938.75,745.7188 L938.75,747.2813 Q938.75,747.9375 938.4688,748.2188 Q938.1875,748.5 937.75,748.5 Q937.3594,748.5 937.1094,748.3281 Q936.8594,748.1563 936.75,747.7031 Q936.7031,747.3906 936.5313,747.2188 Q936.2188,746.8906 935.6563,746.7031 Q935.0938,746.5 934.5313,746.5 Q933.8281,746.5 933.2344,746.7813 Q932.6563,747.0625 932.2031,747.6875 Q931.75,748.3125 931.75,749.1719 L931.75,750.0938 Q931.75,751.125 932.5938,751.8125 Q933.4375,752.5 934.9375,752.5 Q935.8281,752.5 936.4531,752.2969 Q936.8125,752.1875 937.2188,751.8281 Q937.4844,751.625 937.625,751.5625 Q937.7656,751.5 937.9375,751.5 Q938.2656,751.5 938.5,751.7656 Q938.75,752.0156 938.75,752.375 Q938.75,752.7188 938.4063,753.125 Q937.9063,753.7188 937.1094,754.0469 Q936.0625,754.5 934.7813,754.5 Q933.2813,754.5 932.0781,753.9063 Q931.1094,753.4375 930.4219,752.4219 Q929.75,751.4063 929.75,750.2031 L929.75,749.1094 Q929.75,747.8594 930.3438,746.7656 Q930.9531,745.6719 932,745.0938 Q933.0625,744.5 934.25,744.5 Q934.9688,744.5 935.5938,744.75 Q936.2188,745 936.75,745.5 Z " fill="#000000"/><text fill="#000000" font-family="sans-serif" font-size="12" lengthAdjust="spacingAndGlyphs" textLength="71" x="955.25" y="753.9102">MonsterCard</text><line style="stroke:#A80036;stroke-width:1.5;" x1="855.5" x2="1093.5" y1="765" y2="765"/><text fill="#000000" font-family="sans-serif" font-size="11" lengthAdjust="spacingAndGlyphs" textLength="162" x="860.5" y="780.4189">-MonsterCardCreatureType _type</text><line style="stroke:#A80036;stroke-width:1.5;" x1="855.5" x2="1093.5" y1="786.8359" y2="786.8359"/><text fill="#000000" font-family="sans-serif" font-size="11" lengthAdjust="spacingAndGlyphs" textLength="228" x="860.5" y="802.2549">+MonsterCardCreatureType GetCreatureType()</text><!--MD5=[913faba1f7e322d3c5a093383d75db4f]
class MonsterCardCreatureType--><rect codeLine="24" fill="#FEFECE" filter="url(#fe04hzye3adrc)" height="158.6875" id="MonsterCardCreatureType" style="stroke:#A80036;stroke-width:1.5;" width="177" x="7" y="14"/><ellipse cx="22" cy="30" fill="#EB937F" rx="11" ry="11" style="stroke:#A80036;stroke-width:1.0;"/><path d="M20.5,31 L20.5,33 L24.5,33 L24.5,32 L24.5,31.5156 L25.125,31 L25.5,31 L25.875,31 L26.5,31.5156 L26.5,32 L26.5,35 L18.5,35 L18.0156,35 L17.5,34.375 L17.5,34 L17.5,33.625 L18.0156,33 L18.5,33 L18.5,33 L18.5,27 L18.5,27 L18.0156,27 L17.5,26.375 L17.5,26 L17.5,25.625 L18.0156,25 L18.5,25 L26.5,25 L26.5,28 L26.5,28.4844 L25.875,29 L25.5,29 L25.125,29 L24.5,28.4844 L24.5,28 L24.5,27 L20.5,27 L20.5,29 L21.5,29 L21.5,28.5156 L21.5,28.5156 L22.125,28 L22.5,28 L22.875,28 L23.5,28.5156 L23.5,29 L23.5,31 L23.5,31.4844 L22.875,32 L22.875,32 L22.5,32 L22.125,32 L21.5,31.4844 L21.5,31.4844 L21.5,31 L20.5,31 Z " fill="#000000"/><text fill="#000000" font-family="sans-serif" font-size="12" lengthAdjust="spacingAndGlyphs" textLength="145" x="36" y="34.9102">MonsterCardCreatureType</text><line style="stroke:#A80036;stroke-width:1.5;" x1="8" x2="183" y1="46" y2="46"/><text fill="#000000" font-family="sans-serif" font-size="11" lengthAdjust="spacingAndGlyphs" textLength="33" x="13" y="61.4189">Human</text><text fill="#000000" font-family="sans-serif" font-size="11" lengthAdjust="spacingAndGlyphs" textLength="30" x="13" y="75.2549">Goblin</text><text fill="#000000" font-family="sans-serif" font-size="11" lengthAdjust="spacingAndGlyphs" textLength="34" x="13" y="89.0908">Wizard</text><text fill="#000000" font-family="sans-serif" font-size="11" lengthAdjust="spacingAndGlyphs" textLength="35" x="13" y="102.9268">Dragon</text><text fill="#000000" font-family="sans-serif" font-size="11" lengthAdjust="spacingAndGlyphs" textLength="17" x="13" y="116.7627">Ork</text><text fill="#000000" font-family="sans-serif" font-size="11" lengthAdjust="spacingAndGlyphs" textLength="30" x="13" y="130.5986">Knight</text><text fill="#000000" font-family="sans-serif" font-size="11" lengthAdjust="spacingAndGlyphs" textLength="34" x="13" y="144.4346">Kraken</text><text fill="#000000" font-family="sans-serif" font-size="11" lengthAdjust="spacingAndGlyphs" textLength="32" x="13" y="158.2705">FireElv</text><line style="stroke:#A80036;stroke-width:1.5;" x1="8" x2="183" y1="164.6875" y2="164.6875"/><!--MD5=[801abd42a1f0e3c1039de247edfe5aa8]
class SpellCard--><rect codeLine="35" fill="#FEFECE" filter="url(#fe04hzye3adrc)" height="61.8359" id="SpellCard" style="stroke:#A80036;stroke-width:1.5;" width="239" x="1130" y="740"/><ellipse cx="1217.75" cy="756" fill="#ADD1B2" rx="11" ry="11" style="stroke:#A80036;stroke-width:1.0;"/><path d="M1219.75,752.5 Q1219.9531,752 1220.1875,751.75 Q1220.4219,751.5 1220.6875,751.5 Q1221.1563,751.5 1221.4531,751.7813 Q1221.75,752.0625 1221.75,752.7188 L1221.75,754.2813 Q1221.75,754.9375 1221.4688,755.2188 Q1221.1875,755.5 1220.75,755.5 Q1220.3594,755.5 1220.1094,755.3281 Q1219.8594,755.1563 1219.75,754.7031 Q1219.7031,754.3906 1219.5313,754.2188 Q1219.2188,753.8906 1218.6563,753.7031 Q1218.0938,753.5 1217.5313,753.5 Q1216.8281,753.5 1216.2344,753.7813 Q1215.6563,754.0625 1215.2031,754.6875 Q1214.75,755.3125 1214.75,756.1719 L1214.75,757.0938 Q1214.75,758.125 1215.5938,758.8125 Q1216.4375,759.5 1217.9375,759.5 Q1218.8281,759.5 1219.4531,759.2969 Q1219.8125,759.1875 1220.2188,758.8281 Q1220.4844,758.625 1220.625,758.5625 Q1220.7656,758.5 1220.9375,758.5 Q1221.2656,758.5 1221.5,758.7656 Q1221.75,759.0156 1221.75,759.375 Q1221.75,759.7188 1221.4063,760.125 Q1220.9063,760.7188 1220.1094,761.0469 Q1219.0625,761.5 1217.7813,761.5 Q1216.2813,761.5 1215.0781,760.9063 Q1214.1094,760.4375 1213.4219,759.4219 Q1212.75,758.4063 1212.75,757.2031 L1212.75,756.1094 Q1212.75,754.8594 1213.3438,753.7656 Q1213.9531,752.6719 1215,752.0938 Q1216.0625,751.5 1217.25,751.5 Q1217.9688,751.5 1218.5938,751.75 Q1219.2188,752 1219.75,752.5 Z " fill="#000000"/><text fill="#000000" font-family="sans-serif" font-size="12" lengthAdjust="spacingAndGlyphs" textLength="55" x="1238.25" y="760.9102">SpellCard</text><line style="stroke:#A80036;stroke-width:1.5;" x1="1131" x2="1368" y1="772" y2="772"/><line style="stroke:#A80036;stroke-width:1.5;" x1="1131" x2="1368" y1="780" y2="780"/><text fill="#000000" font-family="sans-serif" font-size="11" lengthAdjust="spacingAndGlyphs" textLength="227" x="1136" y="795.4189">+double GetEffectivenessMultiplier(ICard other)</text><!--MD5=[d16c9d3e6bca5baa0e0741a83ab0ddc0]
class CardType--><rect codeLine="38" fill="#FEFECE" filter="url(#fe04hzye3adrc)" height="89.5078" id="CardType" style="stroke:#A80036;stroke-width:1.5;" width="85" x="219" y="48.5"/><ellipse cx="234" cy="64.5" fill="#EB937F" rx="11" ry="11" style="stroke:#A80036;stroke-width:1.0;"/><path d="M232.5,65.5 L232.5,67.5 L236.5,67.5 L236.5,66.5 L236.5,66.0156 L237.125,65.5 L237.5,65.5 L237.875,65.5 L238.5,66.0156 L238.5,66.5 L238.5,69.5 L230.5,69.5 L230.0156,69.5 L229.5,68.875 L229.5,68.5 L229.5,68.125 L230.0156,67.5 L230.5,67.5 L230.5,67.5 L230.5,61.5 L230.5,61.5 L230.0156,61.5 L229.5,60.875 L229.5,60.5 L229.5,60.125 L230.0156,59.5 L230.5,59.5 L238.5,59.5 L238.5,62.5 L238.5,62.9844 L237.875,63.5 L237.5,63.5 L237.125,63.5 L236.5,62.9844 L236.5,62.5 L236.5,61.5 L232.5,61.5 L232.5,63.5 L233.5,63.5 L233.5,63.0156 L233.5,63.0156 L234.125,62.5 L234.5,62.5 L234.875,62.5 L235.5,63.0156 L235.5,63.5 L235.5,65.5 L235.5,65.9844 L234.875,66.5 L234.875,66.5 L234.5,66.5 L234.125,66.5 L233.5,65.9844 L233.5,65.9844 L233.5,65.5 L232.5,65.5 Z " fill="#000000"/><text fill="#000000" font-family="sans-serif" font-size="12" lengthAdjust="spacingAndGlyphs" textLength="53" x="248" y="69.4102">CardType</text><line style="stroke:#A80036;stroke-width:1.5;" x1="220" x2="303" y1="80.5" y2="80.5"/><text fill="#000000" font-family="sans-serif" font-size="11" lengthAdjust="spacingAndGlyphs" textLength="33" x="225" y="95.9189">Normal</text><text fill="#000000" font-family="sans-serif" font-size="11" lengthAdjust="spacingAndGlyphs" textLength="29" x="225" y="109.7549">Water</text><text fill="#000000" font-family="sans-serif" font-size="11" lengthAdjust="spacingAndGlyphs" textLength="18" x="225" y="123.5908">Fire</text><line style="stroke:#A80036;stroke-width:1.5;" x1="220" x2="303" y1="130.0078" y2="130.0078"/><!--MD5=[3fd616f346a44cd59a91eb10b19e157c]
class User--><rect codeLine="46" fill="#FEFECE" filter="url(#fe04hzye3adrc)" height="172.5234" id="User" style="stroke:#A80036;stroke-width:1.5;" width="111" x="339" y="7"/><ellipse cx="377.4" cy="23" fill="#ADD1B2" rx="11" ry="11" style="stroke:#A80036;stroke-width:1.0;"/><path d="M379.4,19.5 Q379.6031,19 379.8375,18.75 Q380.0719,18.5 380.3375,18.5 Q380.8063,18.5 381.1031,18.7813 Q381.4,19.0625 381.4,19.7188 L381.4,21.2813 Q381.4,21.9375 381.1188,22.2188 Q380.8375,22.5 380.4,22.5 Q380.0094,22.5 379.7594,22.3281 Q379.5094,22.1563 379.4,21.7031 Q379.3531,21.3906 379.1813,21.2188 Q378.8688,20.8906 378.3063,20.7031 Q377.7438,20.5 377.1813,20.5 Q376.4781,20.5 375.8844,20.7813 Q375.3063,21.0625 374.8531,21.6875 Q374.4,22.3125 374.4,23.1719 L374.4,24.0938 Q374.4,25.125 375.2438,25.8125 Q376.0875,26.5 377.5875,26.5 Q378.4781,26.5 379.1031,26.2969 Q379.4625,26.1875 379.8688,25.8281 Q380.1344,25.625 380.275,25.5625 Q380.4156,25.5 380.5875,25.5 Q380.9156,25.5 381.15,25.7656 Q381.4,26.0156 381.4,26.375 Q381.4,26.7188 381.0563,27.125 Q380.5563,27.7188 379.7594,28.0469 Q378.7125,28.5 377.4313,28.5 Q375.9313,28.5 374.7281,27.9063 Q373.7594,27.4375 373.0719,26.4219 Q372.4,25.4063 372.4,24.2031 L372.4,23.1094 Q372.4,21.8594 372.9938,20.7656 Q373.6031,19.6719 374.65,19.0938 Q375.7125,18.5 376.9,18.5 Q377.6188,18.5 378.2438,18.75 Q378.8688,19 379.4,19.5 Z " fill="#000000"/><text fill="#000000" font-family="sans-serif" font-size="12" lengthAdjust="spacingAndGlyphs" textLength="27" x="396.6" y="27.9102">User</text><line style="stroke:#A80036;stroke-width:1.5;" x1="340" x2="449" y1="39" y2="39"/><text fill="#000000" font-family="sans-serif" font-size="11" lengthAdjust="spacingAndGlyphs" textLength="89" x="345" y="54.4189">+string LoginName</text><text fill="#000000" font-family="sans-serif" font-size="11" lengthAdjust="spacingAndGlyphs" textLength="81" x="345" y="68.2549">+string NameTag</text><text fill="#000000" font-family="sans-serif" font-size="11" lengthAdjust="spacingAndGlyphs" textLength="51" x="345" y="82.0908">+string Bio</text><text fill="#000000" font-family="sans-serif" font-size="11" lengthAdjust="spacingAndGlyphs" textLength="67" x="345" y="95.9268">+string Status</text><text fill="#000000" font-family="sans-serif" font-size="11" lengthAdjust="spacingAndGlyphs" textLength="55" x="345" y="109.7627">+double Elo</text><text fill="#000000" font-family="sans-serif" font-size="11" lengthAdjust="spacingAndGlyphs" textLength="68" x="345" y="123.5986">+double Coins</text><text fill="#000000" font-family="sans-serif" font-size="11" lengthAdjust="spacingAndGlyphs" textLength="90" x="345" y="137.4346">+List&lt;ICard&gt; Stack</text><text fill="#000000" font-family="sans-serif" font-size="11" lengthAdjust="spacingAndGlyphs" textLength="99" x="345" y="151.2705">+List&lt;ICard&gt;[4] Deck</text><line style="stroke:#A80036;stroke-width:1.5;" x1="340" x2="449" y1="157.6875" y2="157.6875"/><text fill="#000000" font-family="sans-serif" font-size="11" lengthAdjust="spacingAndGlyphs" textLength="93" x="345" y="173.1064">+GetGameHistory()</text><!--MD5=[6197423a059df3745aafada0414fd692]
class Client / Curl Script--><rect codeLine="59" fill="#FEFECE" filter="url(#fe04hzye3adrc)" height="227.8672" id="Client / Curl Script" style="stroke:#A80036;stroke-width:1.5;" width="146" x="22.5" y="254"/><ellipse cx="44.7" cy="270" fill="#ADD1B2" rx="11" ry="11" style="stroke:#A80036;stroke-width:1.0;"/><path d="M46.7,266.5 Q46.9031,266 47.1375,265.75 Q47.3719,265.5 47.6375,265.5 Q48.1063,265.5 48.4031,265.7813 Q48.7,266.0625 48.7,266.7188 L48.7,268.2813 Q48.7,268.9375 48.4188,269.2188 Q48.1375,269.5 47.7,269.5 Q47.3094,269.5 47.0594,269.3281 Q46.8094,269.1563 46.7,268.7031 Q46.6531,268.3906 46.4813,268.2188 Q46.1688,267.8906 45.6063,267.7031 Q45.0438,267.5 44.4813,267.5 Q43.7781,267.5 43.1844,267.7813 Q42.6063,268.0625 42.1531,268.6875 Q41.7,269.3125 41.7,270.1719 L41.7,271.0938 Q41.7,272.125 42.5438,272.8125 Q43.3875,273.5 44.8875,273.5 Q45.7781,273.5 46.4031,273.2969 Q46.7625,273.1875 47.1688,272.8281 Q47.4344,272.625 47.575,272.5625 Q47.7156,272.5 47.8875,272.5 Q48.2156,272.5 48.45,272.7656 Q48.7,273.0156 48.7,273.375 Q48.7,273.7188 48.3563,274.125 Q47.8563,274.7188 47.0594,275.0469 Q46.0125,275.5 44.7313,275.5 Q43.2313,275.5 42.0281,274.9063 Q41.0594,274.4375 40.3719,273.4219 Q39.7,272.4063 39.7,271.2031 L39.7,270.1094 Q39.7,268.8594 40.2938,267.7656 Q40.9031,266.6719 41.95,266.0938 Q43.0125,265.5 44.2,265.5 Q44.9188,265.5 45.5438,265.75 Q46.1688,266 46.7,266.5 Z " fill="#000000"/><text fill="#000000" font-family="sans-serif" font-size="12" lengthAdjust="spacingAndGlyphs" textLength="98" x="60.3" y="274.9102">Client / Curl Script</text><line style="stroke:#A80036;stroke-width:1.5;" x1="23.5" x2="167.5" y1="286" y2="286"/><line style="stroke:#A80036;stroke-width:1.5;" x1="23.5" x2="167.5" y1="294" y2="294"/><text fill="#000000" font-family="sans-serif" font-size="11" lengthAdjust="spacingAndGlyphs" textLength="54" x="28.5" y="309.4189">+Register()</text><text fill="#000000" font-family="sans-serif" font-size="11" lengthAdjust="spacingAndGlyphs" textLength="40" x="28.5" y="323.2549">+Login()</text><text fill="#000000" font-family="sans-serif" font-size="11" lengthAdjust="spacingAndGlyphs" textLength="87" x="28.5" y="337.0908">+CreatePackage()</text><text fill="#000000" font-family="sans-serif" font-size="11" lengthAdjust="spacingAndGlyphs" textLength="93" x="28.5" y="350.9268">+AcquirePackage()</text><text fill="#000000" font-family="sans-serif" font-size="11" lengthAdjust="spacingAndGlyphs" textLength="134" x="28.5" y="364.7627">+ShowAcquiredPackages()</text><text fill="#000000" font-family="sans-serif" font-size="11" lengthAdjust="spacingAndGlyphs" textLength="67" x="28.5" y="378.5986">+ShowDeck()</text><text fill="#000000" font-family="sans-serif" font-size="11" lengthAdjust="spacingAndGlyphs" textLength="85" x="28.5" y="392.4346">+ConfigureDeck()</text><text fill="#000000" font-family="sans-serif" font-size="11" lengthAdjust="spacingAndGlyphs" textLength="76" x="28.5" y="406.2705">+EditUserData()</text><text fill="#000000" font-family="sans-serif" font-size="11" lengthAdjust="spacingAndGlyphs" textLength="74" x="28.5" y="420.1064">+DisplayStats()</text><text fill="#000000" font-family="sans-serif" font-size="11" lengthAdjust="spacingAndGlyphs" textLength="106" x="28.5" y="433.9424">+DisplayScoreboard()</text><text fill="#000000" font-family="sans-serif" font-size="11" lengthAdjust="spacingAndGlyphs" textLength="41" x="28.5" y="447.7783">+Battle()</text><text fill="#000000" font-family="sans-serif" font-size="11" lengthAdjust="spacingAndGlyphs" textLength="104" x="28.5" y="461.6143">+DisplayTradeDeals()</text><text fill="#000000" font-family="sans-serif" font-size="11" lengthAdjust="spacingAndGlyphs" textLength="103" x="28.5" y="475.4502">+CreateTradingDeal()</text><!--MD5=[f4a1549148b57c5305fbb95453e36625]
class TradeDeal--><rect codeLine="76" fill="#FEFECE" filter="url(#fe04hzye3adrc)" height="131.0156" id="TradeDeal" style="stroke:#A80036;stroke-width:1.5;" width="408" x="203.5" y="302.5"/><ellipse cx="374.25" cy="318.5" fill="#ADD1B2" rx="11" ry="11" style="stroke:#A80036;stroke-width:1.0;"/><path d="M376.25,315 Q376.4531,314.5 376.6875,314.25 Q376.9219,314 377.1875,314 Q377.6563,314 377.9531,314.2813 Q378.25,314.5625 378.25,315.2188 L378.25,316.7813 Q378.25,317.4375 377.9688,317.7188 Q377.6875,318 377.25,318 Q376.8594,318 376.6094,317.8281 Q376.3594,317.6563 376.25,317.2031 Q376.2031,316.8906 376.0313,316.7188 Q375.7188,316.3906 375.1563,316.2031 Q374.5938,316 374.0313,316 Q373.3281,316 372.7344,316.2813 Q372.1563,316.5625 371.7031,317.1875 Q371.25,317.8125 371.25,318.6719 L371.25,319.5938 Q371.25,320.625 372.0938,321.3125 Q372.9375,322 374.4375,322 Q375.3281,322 375.9531,321.7969 Q376.3125,321.6875 376.7188,321.3281 Q376.9844,321.125 377.125,321.0625 Q377.2656,321 377.4375,321 Q377.7656,321 378,321.2656 Q378.25,321.5156 378.25,321.875 Q378.25,322.2188 377.9063,322.625 Q377.4063,323.2188 376.6094,323.5469 Q375.5625,324 374.2813,324 Q372.7813,324 371.5781,323.4063 Q370.6094,322.9375 369.9219,321.9219 Q369.25,320.9063 369.25,319.7031 L369.25,318.6094 Q369.25,317.3594 369.8438,316.2656 Q370.4531,315.1719 371.5,314.5938 Q372.5625,314 373.75,314 Q374.4688,314 375.0938,314.25 Q375.7188,314.5 376.25,315 Z " fill="#000000"/><text fill="#000000" font-family="sans-serif" font-size="12" lengthAdjust="spacingAndGlyphs" textLength="58" x="394.75" y="323.4102">TradeDeal</text><line style="stroke:#A80036;stroke-width:1.5;" x1="204.5" x2="610.5" y1="334.5" y2="334.5"/><text fill="#000000" font-family="sans-serif" font-size="11" lengthAdjust="spacingAndGlyphs" textLength="37" x="209.5" y="349.9189">-Guid Id</text><text fill="#000000" font-family="sans-serif" font-size="11" lengthAdjust="spacingAndGlyphs" textLength="82" x="209.5" y="363.7549">-string username</text><text fill="#000000" font-family="sans-serif" font-size="11" lengthAdjust="spacingAndGlyphs" textLength="61" x="209.5" y="377.5908">-ICard _Card</text><text fill="#000000" font-family="sans-serif" font-size="11" lengthAdjust="spacingAndGlyphs" textLength="121" x="209.5" y="391.4268">-CardType _WantedType</text><text fill="#000000" font-family="sans-serif" font-size="11" lengthAdjust="spacingAndGlyphs" textLength="100" x="209.5" y="405.2627">-double _MinDamage</text><line style="stroke:#A80036;stroke-width:1.5;" x1="204.5" x2="610.5" y1="411.6797" y2="411.6797"/><text fill="#000000" font-family="sans-serif" font-size="11" lengthAdjust="spacingAndGlyphs" textLength="396" x="209.5" y="427.0986">+TradeDeal(string id, string username, ICard card, CardType type, double minDmg)</text><!--MD5=[c60af77fe5573b84a4aa4bce89659574]
class Server--><rect codeLine="85" fill="#FEFECE" filter="url(#fe04hzye3adrc)" height="255.5391" id="Server" style="stroke:#A80036;stroke-width:1.5;" width="412" x="646.5" y="240"/><ellipse cx="830.75" cy="256" fill="#ADD1B2" rx="11" ry="11" style="stroke:#A80036;stroke-width:1.0;"/><path d="M832.75,252.5 Q832.9531,252 833.1875,251.75 Q833.4219,251.5 833.6875,251.5 Q834.1563,251.5 834.4531,251.7813 Q834.75,252.0625 834.75,252.7188 L834.75,254.2813 Q834.75,254.9375 834.4688,255.2188 Q834.1875,255.5 833.75,255.5 Q833.3594,255.5 833.1094,255.3281 Q832.8594,255.1563 832.75,254.7031 Q832.7031,254.3906 832.5313,254.2188 Q832.2188,253.8906 831.6563,253.7031 Q831.0938,253.5 830.5313,253.5 Q829.8281,253.5 829.2344,253.7813 Q828.6563,254.0625 828.2031,254.6875 Q827.75,255.3125 827.75,256.1719 L827.75,257.0938 Q827.75,258.125 828.5938,258.8125 Q829.4375,259.5 830.9375,259.5 Q831.8281,259.5 832.4531,259.2969 Q832.8125,259.1875 833.2188,258.8281 Q833.4844,258.625 833.625,258.5625 Q833.7656,258.5 833.9375,258.5 Q834.2656,258.5 834.5,258.7656 Q834.75,259.0156 834.75,259.375 Q834.75,259.7188 834.4063,260.125 Q833.9063,260.7188 833.1094,261.0469 Q832.0625,261.5 830.7813,261.5 Q829.2813,261.5 828.0781,260.9063 Q827.1094,260.4375 826.4219,259.4219 Q825.75,258.4063 825.75,257.2031 L825.75,256.1094 Q825.75,254.8594 826.3438,253.7656 Q826.9531,252.6719 828,252.0938 Q829.0625,251.5 830.25,251.5 Q830.9688,251.5 831.5938,251.75 Q832.2188,252 832.75,252.5 Z " fill="#000000"/><text fill="#000000" font-family="sans-serif" font-size="12" lengthAdjust="spacingAndGlyphs" textLength="35" x="851.25" y="260.9102">Server</text><line style="stroke:#A80036;stroke-width:1.5;" x1="647.5" x2="1057.5" y1="272" y2="272"/><text fill="#000000" font-family="sans-serif" font-size="11" lengthAdjust="spacingAndGlyphs" textLength="93" x="652.5" y="287.4189">-List&lt;User&gt; _users</text><text fill="#000000" font-family="sans-serif" font-size="11" lengthAdjust="spacingAndGlyphs" textLength="137" x="652.5" y="301.2549">-List&lt;User&gt; _usersLoggedIn</text><text fill="#000000" font-family="sans-serif" font-size="11" lengthAdjust="spacingAndGlyphs" textLength="131" x="652.5" y="315.0908">-Dict&lt;string, User&gt; _tokens</text><text fill="#000000" font-family="sans-serif" font-size="11" lengthAdjust="spacingAndGlyphs" textLength="164" x="652.5" y="328.9268">-List&lt;ICard[5]&gt; AvailablePackages</text><text fill="#000000" font-family="sans-serif" font-size="11" lengthAdjust="spacingAndGlyphs" textLength="140" x="652.5" y="342.7627">-List&lt;TradeDeal&gt; TradeDeals</text><line style="stroke:#A80036;stroke-width:1.5;" x1="647.5" x2="1057.5" y1="349.1797" y2="349.1797"/><text fill="#000000" font-family="sans-serif" font-size="11" lengthAdjust="spacingAndGlyphs" textLength="234" x="652.5" y="364.5986">+string Login(string username, string password)</text><text fill="#000000" font-family="sans-serif" font-size="11" lengthAdjust="spacingAndGlyphs" textLength="400" x="652.5" y="378.4346">+string Register(string username, string password, optional: NameTag, Bio, Status)</text><text fill="#000000" font-family="sans-serif" font-size="11" lengthAdjust="spacingAndGlyphs" textLength="155" x="652.5" y="392.2705">+bool VerifyToken(string Token)</text><text fill="#000000" font-family="sans-serif" font-size="11" lengthAdjust="spacingAndGlyphs" textLength="168" x="652.5" y="406.1064">+string QueueForGame(User user)</text><text fill="#000000" font-family="sans-serif" font-size="11" lengthAdjust="spacingAndGlyphs" textLength="194" x="652.5" y="419.9424">+string SimulateGame(User u1, User u2)</text><text fill="#000000" font-family="sans-serif" font-size="11" lengthAdjust="spacingAndGlyphs" textLength="118" x="652.5" y="433.7783">+string GetStats(User u)</text><text fill="#000000" font-family="sans-serif" font-size="11" lengthAdjust="spacingAndGlyphs" textLength="118" x="652.5" y="447.6143">+string GetScoreboard()</text><text fill="#000000" font-family="sans-serif" font-size="11" lengthAdjust="spacingAndGlyphs" textLength="243" x="652.5" y="461.4502">+string RegisterCardForTrade(user u, Guid cardId)</text><text fill="#000000" font-family="sans-serif" font-size="11" lengthAdjust="spacingAndGlyphs" textLength="128" x="652.5" y="475.2861">+string GetAllTradeDeals()</text><text fill="#000000" font-family="sans-serif" font-size="11" lengthAdjust="spacingAndGlyphs" textLength="224" x="652.5" y="489.1221">+string TradeCard(string cardId, string tradeId)</text><!--MD5=[35732ce94d73a1e5a4fef6749b9d4968]
reverse link ICard to AbstractCard--><path codeLine="18" d="M1111.5,172.23 C1111.5,277.27 1111.5,462.12 1111.5,555.72 " fill="none" id="ICard-backto-AbstractCard" style="stroke:#A80036;stroke-width:1.0;"/><polygon fill="none" points="1104.5,172.03,1111.5,152.03,1118.5,172.03,1104.5,172.03" style="stroke:#A80036;stroke-width:1.0;"/><!--MD5=[7c74489b18a44a96cdf5796d590d71dd]
reverse link AbstractCard to MonsterCard--><path codeLine="43" d="M1047.02,688.22 C1033.4,703.58 1019.57,719.18 1007.69,732.58 " fill="none" id="AbstractCard-backto-MonsterCard" style="stroke:#A80036;stroke-width:1.0;"/><polygon fill="none" points="1041.98,683.35,1060.49,673.03,1052.45,692.64,1041.98,683.35" style="stroke:#A80036;stroke-width:1.0;"/><!--MD5=[eccd8531726fd3d2a5b16f9bcd92e070]
reverse link AbstractCard to SpellCard--><path codeLine="44" d="M1176.39,688.15 C1192.65,706.36 1209.22,724.9 1222.46,739.73 " fill="none" id="AbstractCard-backto-SpellCard" style="stroke:#A80036;stroke-width:1.0;"/><polygon fill="none" points="1170.99,692.61,1162.89,673.03,1181.43,683.28,1170.99,692.61" style="stroke:#A80036;stroke-width:1.0;"/><!--MD5=[072c11591247d7dff7beca7f4304b577]
link MonsterCardCreatureType to CardType--><!--MD5=[37edb988ad6bc0838838b4024f001986]
link CardType to User--><!--MD5=[89519860ce28ecd358ac7aaa6450b371]
link MonsterCardCreatureType to Client / Curl Script--><!--MD5=[f39dcb8709eb5fabf4d5bd6853c6d7bc]
link Client / Curl Script to TradeDeal--><!--MD5=[e08b7e72a50fe7ab1da257f132e3ff0a]
link TradeDeal to Server--><!--MD5=[a234335b201609a842dd8595bff65e16]
@startuml
skinparam classAttributeIconSize 0

Interface ICard{
 +Guid Id
 +double Damage
 +string Name
 +CardType Type
 +double GetAttackValue(ICard other)
}

class AbstractCard{
 +Guid Id
 +double Damage
 +string Name
 +CardType Type
 +double GetAttackValue(ICard other)
}
ICard <|- - - AbstractCard

class MonsterCard{
 -MonsterCardCreatureType _type
 +MonsterCardCreatureType GetCreatureType()
}
enum MonsterCardCreatureType{
 Human
 Goblin
 Wizard
 Dragon
 Ork
 Knight
 Kraken
 FireElv
}

class SpellCard{
 +double GetEffectivenessMultiplier(ICard other)
}
enum CardType{
 Normal
 Water
 Fire
}
AbstractCard <|- - MonsterCard
AbstractCard <|- - SpellCard

class User{
 +string LoginName
 +string NameTag
 +string Bio
 +string Status
 +double Elo
 +double Coins
 +List<ICard> Stack
 +GetGameHistory()
 +List<ICard>[4] Deck
}


class "Client / Curl Script"{
 +Register()
 +Login()
 +CreatePackage()
 +AcquirePackage()
 +ShowAcquiredPackages()
 +ShowDeck()
 +ConfigureDeck()
 +EditUserData()
 +DisplayStats()
 +DisplayScoreboard()
 +Battle()
 +DisplayTradeDeals()
 +CreateTradingDeal() 
}


class TradeDeal {
 -Guid Id
 -string username
 -ICard _Card
 -CardType _WantedType
 -double _MinDamage
 +TradeDeal(string id, string username, ICard card, CardType type, double minDmg)
}

class Server{
 -List<User> _users
 -List<User> _usersLoggedIn
 -Dict<string, User> _tokens
 -List<ICard[5]> AvailablePackages
 -List<TradeDeal> TradeDeals
 +string Login(string username, string password)
 +string Register(string username, string password, optional: NameTag, Bio, Status)
 +bool VerifyToken(string Token)
 +string QueueForGame(User user)
 +string SimulateGame(User u1, User u2)
 +string GetStats(User u)
 +string GetScoreboard()
 +string RegisterCardForTrade(user u, Guid cardId)
 +string GetAllTradeDeals()
 +string TradeCard(string cardId, string tradeId)
 
}

@enduml

PlantUML version 1.2020.23(Sun Dec 13 20:14:58 CET 2020)
(GPL source distribution)
Java Runtime: OpenJDK Runtime Environment
JVM: OpenJDK 64-Bit Server VM
Default Encoding: Cp1252
Language: en
Country: US
--></g></svg>