<?xml version="1.0" encoding="UTF-8" standalone="no"?><svg xmlns="http://www.w3.org/2000/svg" xmlns:xlink="http://www.w3.org/1999/xlink" contentScriptType="application/ecmascript" contentStyleType="text/css" height="850px" preserveAspectRatio="none" style="width:1269px;height:850px;" version="1.1" viewBox="0 0 1269 850" width="1269px" zoomAndPan="magnify"><defs><filter height="300%" id="f11gktmunm3l5p" width="300%" x="-1" y="-1"><feGaussianBlur result="blurOut" stdDeviation="2.0"/><feColorMatrix in="blurOut" result="blurOut2" type="matrix" values="0 0 0 0 0 0 0 0 0 0 0 0 0 0 0 0 0 0 .4 0"/><feOffset dx="4.0" dy="4.0" in="blurOut2" result="blurOut3"/><feBlend in="SourceGraphic" in2="blurOut3" mode="normal"/></filter></defs><g><!--MD5=[b3d1b7ce0b9aeb447f10a862a70f6cde]
class ICard--><rect codeLine="3" fill="#FEFECE" filter="url(#f11gktmunm3l5p)" height="117.1797" id="ICard" style="stroke:#A80036;stroke-width:1.5;" width="190" x="1016.5" y="35"/><ellipse cx="1091.75" cy="51" fill="#B4A7E5" rx="11" ry="11" style="stroke:#A80036;stroke-width:1.0;"/><path d="M1092.75,48 L1092.75,54 L1094.75,54 L1095.2344,54 L1095.75,54.625 L1095.75,55 L1095.75,55.375 L1095.2344,56 L1094.75,56 L1088.75,56 L1088.2656,56 L1087.75,55.375 L1087.75,55 L1087.75,54.625 L1088.2656,54 L1088.75,54 L1090.75,54 L1090.75,48 L1088.75,48 L1088.2656,48 L1087.75,47.375 L1087.75,47 L1087.75,46.625 L1088.2656,46 L1088.75,46 L1094.75,46 L1095.2344,46 L1095.75,46.625 L1095.75,47 L1095.75,47.375 L1095.2344,48 L1094.75,48 L1092.75,48 Z " fill="#000000"/><text fill="#000000" font-family="sans-serif" font-size="12" font-style="italic" lengthAdjust="spacingAndGlyphs" textLength="31" x="1112.25" y="55.9102">ICard</text><line style="stroke:#A80036;stroke-width:1.5;" x1="1017.5" x2="1205.5" y1="67" y2="67"/><text fill="#000000" font-family="sans-serif" font-size="11" lengthAdjust="spacingAndGlyphs" textLength="39" x="1022.5" y="82.4189">+Guid Id</text><text fill="#000000" font-family="sans-serif" font-size="11" lengthAdjust="spacingAndGlyphs" textLength="80" x="1022.5" y="96.2549">+double Damage</text><text fill="#000000" font-family="sans-serif" font-size="11" lengthAdjust="spacingAndGlyphs" textLength="63" x="1022.5" y="110.0908">+string Name</text><text fill="#000000" font-family="sans-serif" font-size="11" lengthAdjust="spacingAndGlyphs" textLength="80" x="1022.5" y="123.9268">+CardType Type</text><line style="stroke:#A80036;stroke-width:1.5;" x1="1017.5" x2="1205.5" y1="130.3438" y2="130.3438"/><text fill="#000000" font-family="sans-serif" font-size="11" lengthAdjust="spacingAndGlyphs" textLength="178" x="1022.5" y="145.7627">+double GetAttackValue(ICard other)</text><!--MD5=[ec2e26f5eb1ae873f0fbf3e905502cc3]
class AbstractCard--><rect codeLine="11" fill="#FEFECE" filter="url(#f11gktmunm3l5p)" height="144.8516" id="AbstractCard" style="stroke:#A80036;stroke-width:1.5;" width="239" x="992" y="556"/><ellipse cx="1071.75" cy="572" fill="#ADD1B2" rx="11" ry="11" style="stroke:#A80036;stroke-width:1.0;"/><path d="M1073.75,568.5 Q1073.9531,568 1074.1875,567.75 Q1074.4219,567.5 1074.6875,567.5 Q1075.1563,567.5 1075.4531,567.7813 Q1075.75,568.0625 1075.75,568.7188 L1075.75,570.2813 Q1075.75,570.9375 1075.4688,571.2188 Q1075.1875,571.5 1074.75,571.5 Q1074.3594,571.5 1074.1094,571.3281 Q1073.8594,571.1563 1073.75,570.7031 Q1073.7031,570.3906 1073.5313,570.2188 Q1073.2188,569.8906 1072.6563,569.7031 Q1072.0938,569.5 1071.5313,569.5 Q1070.8281,569.5 1070.2344,569.7813 Q1069.6563,570.0625 1069.2031,570.6875 Q1068.75,571.3125 1068.75,572.1719 L1068.75,573.0938 Q1068.75,574.125 1069.5938,574.8125 Q1070.4375,575.5 1071.9375,575.5 Q1072.8281,575.5 1073.4531,575.2969 Q1073.8125,575.1875 1074.2188,574.8281 Q1074.4844,574.625 1074.625,574.5625 Q1074.7656,574.5 1074.9375,574.5 Q1075.2656,574.5 1075.5,574.7656 Q1075.75,575.0156 1075.75,575.375 Q1075.75,575.7188 1075.4063,576.125 Q1074.9063,576.7188 1074.1094,577.0469 Q1073.0625,577.5 1071.7813,577.5 Q1070.2813,577.5 1069.0781,576.9063 Q1068.1094,576.4375 1067.4219,575.4219 Q1066.75,574.4063 1066.75,573.2031 L1066.75,572.1094 Q1066.75,570.8594 1067.3438,569.7656 Q1067.9531,568.6719 1069,568.0938 Q1070.0625,567.5 1071.25,567.5 Q1071.9688,567.5 1072.5938,567.75 Q1073.2188,568 1073.75,568.5 Z " fill="#000000"/><text fill="#000000" font-family="sans-serif" font-size="12" lengthAdjust="spacingAndGlyphs" textLength="71" x="1092.25" y="576.9102">AbstractCard</text><line style="stroke:#A80036;stroke-width:1.5;" x1="993" x2="1230" y1="588" y2="588"/><text fill="#000000" font-family="sans-serif" font-size="11" lengthAdjust="spacingAndGlyphs" textLength="39" x="998" y="603.4189">+Guid Id</text><text fill="#000000" font-family="sans-serif" font-size="11" lengthAdjust="spacingAndGlyphs" textLength="80" x="998" y="617.2549">+double Damage</text><text fill="#000000" font-family="sans-serif" font-size="11" lengthAdjust="spacingAndGlyphs" textLength="63" x="998" y="631.0908">+string Name</text><text fill="#000000" font-family="sans-serif" font-size="11" lengthAdjust="spacingAndGlyphs" textLength="80" x="998" y="644.9268">+CardType Type</text><line style="stroke:#A80036;stroke-width:1.5;" x1="993" x2="1230" y1="651.3438" y2="651.3438"/><text fill="#000000" font-family="sans-serif" font-size="11" lengthAdjust="spacingAndGlyphs" textLength="178" x="998" y="666.7627">+double GetAttackValue(ICard other)</text><text fill="#000000" font-family="sans-serif" font-size="11" lengthAdjust="spacingAndGlyphs" textLength="227" x="998" y="680.5986">+double GetEffectivenessMultiplier(ICard other)</text><text fill="#000000" font-family="sans-serif" font-size="11" lengthAdjust="spacingAndGlyphs" textLength="173" x="998" y="694.4346">+int Battle(ICard card1, ICard card2)</text><!--MD5=[38a4cc4b862622ae18c211e34a8b180b]
class MonsterCard--><rect codeLine="22" fill="#FEFECE" filter="url(#f11gktmunm3l5p)" height="75.6719" id="MonsterCard" style="stroke:#A80036;stroke-width:1.5;" width="240" x="892.5" y="761"/><ellipse cx="972.75" cy="777" fill="#ADD1B2" rx="11" ry="11" style="stroke:#A80036;stroke-width:1.0;"/><path d="M974.75,773.5 Q974.9531,773 975.1875,772.75 Q975.4219,772.5 975.6875,772.5 Q976.1563,772.5 976.4531,772.7813 Q976.75,773.0625 976.75,773.7188 L976.75,775.2813 Q976.75,775.9375 976.4688,776.2188 Q976.1875,776.5 975.75,776.5 Q975.3594,776.5 975.1094,776.3281 Q974.8594,776.1563 974.75,775.7031 Q974.7031,775.3906 974.5313,775.2188 Q974.2188,774.8906 973.6563,774.7031 Q973.0938,774.5 972.5313,774.5 Q971.8281,774.5 971.2344,774.7813 Q970.6563,775.0625 970.2031,775.6875 Q969.75,776.3125 969.75,777.1719 L969.75,778.0938 Q969.75,779.125 970.5938,779.8125 Q971.4375,780.5 972.9375,780.5 Q973.8281,780.5 974.4531,780.2969 Q974.8125,780.1875 975.2188,779.8281 Q975.4844,779.625 975.625,779.5625 Q975.7656,779.5 975.9375,779.5 Q976.2656,779.5 976.5,779.7656 Q976.75,780.0156 976.75,780.375 Q976.75,780.7188 976.4063,781.125 Q975.9063,781.7188 975.1094,782.0469 Q974.0625,782.5 972.7813,782.5 Q971.2813,782.5 970.0781,781.9063 Q969.1094,781.4375 968.4219,780.4219 Q967.75,779.4063 967.75,778.2031 L967.75,777.1094 Q967.75,775.8594 968.3438,774.7656 Q968.9531,773.6719 970,773.0938 Q971.0625,772.5 972.25,772.5 Q972.9688,772.5 973.5938,772.75 Q974.2188,773 974.75,773.5 Z " fill="#000000"/><text fill="#000000" font-family="sans-serif" font-size="12" lengthAdjust="spacingAndGlyphs" textLength="71" x="993.25" y="781.9102">MonsterCard</text><line style="stroke:#A80036;stroke-width:1.5;" x1="893.5" x2="1131.5" y1="793" y2="793"/><text fill="#000000" font-family="sans-serif" font-size="11" lengthAdjust="spacingAndGlyphs" textLength="162" x="898.5" y="808.4189">-MonsterCardCreatureType _type</text><line style="stroke:#A80036;stroke-width:1.5;" x1="893.5" x2="1131.5" y1="814.8359" y2="814.8359"/><text fill="#000000" font-family="sans-serif" font-size="11" lengthAdjust="spacingAndGlyphs" textLength="228" x="898.5" y="830.2549">+MonsterCardCreatureType GetCreatureType()</text><!--MD5=[913faba1f7e322d3c5a093383d75db4f]
class MonsterCardCreatureType--><rect codeLine="26" fill="#FEFECE" filter="url(#f11gktmunm3l5p)" height="158.6875" id="MonsterCardCreatureType" style="stroke:#A80036;stroke-width:1.5;" width="177" x="7" y="14"/><ellipse cx="22" cy="30" fill="#EB937F" rx="11" ry="11" style="stroke:#A80036;stroke-width:1.0;"/><path d="M20.5,31 L20.5,33 L24.5,33 L24.5,32 L24.5,31.5156 L25.125,31 L25.5,31 L25.875,31 L26.5,31.5156 L26.5,32 L26.5,35 L18.5,35 L18.0156,35 L17.5,34.375 L17.5,34 L17.5,33.625 L18.0156,33 L18.5,33 L18.5,33 L18.5,27 L18.5,27 L18.0156,27 L17.5,26.375 L17.5,26 L17.5,25.625 L18.0156,25 L18.5,25 L26.5,25 L26.5,28 L26.5,28.4844 L25.875,29 L25.5,29 L25.125,29 L24.5,28.4844 L24.5,28 L24.5,27 L20.5,27 L20.5,29 L21.5,29 L21.5,28.5156 L21.5,28.5156 L22.125,28 L22.5,28 L22.875,28 L23.5,28.5156 L23.5,29 L23.5,31 L23.5,31.4844 L22.875,32 L22.875,32 L22.5,32 L22.125,32 L21.5,31.4844 L21.5,31.4844 L21.5,31 L20.5,31 Z " fill="#000000"/><text fill="#000000" font-family="sans-serif" font-size="12" lengthAdjust="spacingAndGlyphs" textLength="145" x="36" y="34.9102">MonsterCardCreatureType</text><line style="stroke:#A80036;stroke-width:1.5;" x1="8" x2="183" y1="46" y2="46"/><text fill="#000000" font-family="sans-serif" font-size="11" lengthAdjust="spacingAndGlyphs" textLength="33" x="13" y="61.4189">Human</text><text fill="#000000" font-family="sans-serif" font-size="11" lengthAdjust="spacingAndGlyphs" textLength="30" x="13" y="75.2549">Goblin</text><text fill="#000000" font-family="sans-serif" font-size="11" lengthAdjust="spacingAndGlyphs" textLength="34" x="13" y="89.0908">Wizard</text><text fill="#000000" font-family="sans-serif" font-size="11" lengthAdjust="spacingAndGlyphs" textLength="35" x="13" y="102.9268">Dragon</text><text fill="#000000" font-family="sans-serif" font-size="11" lengthAdjust="spacingAndGlyphs" textLength="17" x="13" y="116.7627">Ork</text><text fill="#000000" font-family="sans-serif" font-size="11" lengthAdjust="spacingAndGlyphs" textLength="30" x="13" y="130.5986">Knight</text><text fill="#000000" font-family="sans-serif" font-size="11" lengthAdjust="spacingAndGlyphs" textLength="34" x="13" y="144.4346">Kraken</text><text fill="#000000" font-family="sans-serif" font-size="11" lengthAdjust="spacingAndGlyphs" textLength="32" x="13" y="158.2705">FireElv</text><line style="stroke:#A80036;stroke-width:1.5;" x1="8" x2="183" y1="164.6875" y2="164.6875"/><!--MD5=[801abd42a1f0e3c1039de247edfe5aa8]
class SpellCard--><rect codeLine="37" fill="#FEFECE" filter="url(#f11gktmunm3l5p)" height="48" id="SpellCard" style="stroke:#A80036;stroke-width:1.5;" width="87" x="1168" y="775"/><ellipse cx="1183" cy="791" fill="#ADD1B2" rx="11" ry="11" style="stroke:#A80036;stroke-width:1.0;"/><path d="M1185,787.5 Q1185.2031,787 1185.4375,786.75 Q1185.6719,786.5 1185.9375,786.5 Q1186.4063,786.5 1186.7031,786.7813 Q1187,787.0625 1187,787.7188 L1187,789.2813 Q1187,789.9375 1186.7188,790.2188 Q1186.4375,790.5 1186,790.5 Q1185.6094,790.5 1185.3594,790.3281 Q1185.1094,790.1563 1185,789.7031 Q1184.9531,789.3906 1184.7813,789.2188 Q1184.4688,788.8906 1183.9063,788.7031 Q1183.3438,788.5 1182.7813,788.5 Q1182.0781,788.5 1181.4844,788.7813 Q1180.9063,789.0625 1180.4531,789.6875 Q1180,790.3125 1180,791.1719 L1180,792.0938 Q1180,793.125 1180.8438,793.8125 Q1181.6875,794.5 1183.1875,794.5 Q1184.0781,794.5 1184.7031,794.2969 Q1185.0625,794.1875 1185.4688,793.8281 Q1185.7344,793.625 1185.875,793.5625 Q1186.0156,793.5 1186.1875,793.5 Q1186.5156,793.5 1186.75,793.7656 Q1187,794.0156 1187,794.375 Q1187,794.7188 1186.6563,795.125 Q1186.1563,795.7188 1185.3594,796.0469 Q1184.3125,796.5 1183.0313,796.5 Q1181.5313,796.5 1180.3281,795.9063 Q1179.3594,795.4375 1178.6719,794.4219 Q1178,793.4063 1178,792.2031 L1178,791.1094 Q1178,789.8594 1178.5938,788.7656 Q1179.2031,787.6719 1180.25,787.0938 Q1181.3125,786.5 1182.5,786.5 Q1183.2188,786.5 1183.8438,786.75 Q1184.4688,787 1185,787.5 Z " fill="#000000"/><text fill="#000000" font-family="sans-serif" font-size="12" lengthAdjust="spacingAndGlyphs" textLength="55" x="1197" y="795.9102">SpellCard</text><line style="stroke:#A80036;stroke-width:1.5;" x1="1169" x2="1254" y1="807" y2="807"/><line style="stroke:#A80036;stroke-width:1.5;" x1="1169" x2="1254" y1="815" y2="815"/><!--MD5=[d16c9d3e6bca5baa0e0741a83ab0ddc0]
class CardType--><rect codeLine="39" fill="#FEFECE" filter="url(#f11gktmunm3l5p)" height="89.5078" id="CardType" style="stroke:#A80036;stroke-width:1.5;" width="85" x="219" y="48.5"/><ellipse cx="234" cy="64.5" fill="#EB937F" rx="11" ry="11" style="stroke:#A80036;stroke-width:1.0;"/><path d="M232.5,65.5 L232.5,67.5 L236.5,67.5 L236.5,66.5 L236.5,66.0156 L237.125,65.5 L237.5,65.5 L237.875,65.5 L238.5,66.0156 L238.5,66.5 L238.5,69.5 L230.5,69.5 L230.0156,69.5 L229.5,68.875 L229.5,68.5 L229.5,68.125 L230.0156,67.5 L230.5,67.5 L230.5,67.5 L230.5,61.5 L230.5,61.5 L230.0156,61.5 L229.5,60.875 L229.5,60.5 L229.5,60.125 L230.0156,59.5 L230.5,59.5 L238.5,59.5 L238.5,62.5 L238.5,62.9844 L237.875,63.5 L237.5,63.5 L237.125,63.5 L236.5,62.9844 L236.5,62.5 L236.5,61.5 L232.5,61.5 L232.5,63.5 L233.5,63.5 L233.5,63.0156 L233.5,63.0156 L234.125,62.5 L234.5,62.5 L234.875,62.5 L235.5,63.0156 L235.5,63.5 L235.5,65.5 L235.5,65.9844 L234.875,66.5 L234.875,66.5 L234.5,66.5 L234.125,66.5 L233.5,65.9844 L233.5,65.9844 L233.5,65.5 L232.5,65.5 Z " fill="#000000"/><text fill="#000000" font-family="sans-serif" font-size="12" lengthAdjust="spacingAndGlyphs" textLength="53" x="248" y="69.4102">CardType</text><line style="stroke:#A80036;stroke-width:1.5;" x1="220" x2="303" y1="80.5" y2="80.5"/><text fill="#000000" font-family="sans-serif" font-size="11" lengthAdjust="spacingAndGlyphs" textLength="33" x="225" y="95.9189">Normal</text><text fill="#000000" font-family="sans-serif" font-size="11" lengthAdjust="spacingAndGlyphs" textLength="29" x="225" y="109.7549">Water</text><text fill="#000000" font-family="sans-serif" font-size="11" lengthAdjust="spacingAndGlyphs" textLength="18" x="225" y="123.5908">Fire</text><line style="stroke:#A80036;stroke-width:1.5;" x1="220" x2="303" y1="130.0078" y2="130.0078"/><!--MD5=[3fd616f346a44cd59a91eb10b19e157c]
class User--><rect codeLine="47" fill="#FEFECE" filter="url(#f11gktmunm3l5p)" height="172.5234" id="User" style="stroke:#A80036;stroke-width:1.5;" width="111" x="339" y="7"/><ellipse cx="377.4" cy="23" fill="#ADD1B2" rx="11" ry="11" style="stroke:#A80036;stroke-width:1.0;"/><path d="M379.4,19.5 Q379.6031,19 379.8375,18.75 Q380.0719,18.5 380.3375,18.5 Q380.8063,18.5 381.1031,18.7813 Q381.4,19.0625 381.4,19.7188 L381.4,21.2813 Q381.4,21.9375 381.1188,22.2188 Q380.8375,22.5 380.4,22.5 Q380.0094,22.5 379.7594,22.3281 Q379.5094,22.1563 379.4,21.7031 Q379.3531,21.3906 379.1813,21.2188 Q378.8688,20.8906 378.3063,20.7031 Q377.7438,20.5 377.1813,20.5 Q376.4781,20.5 375.8844,20.7813 Q375.3063,21.0625 374.8531,21.6875 Q374.4,22.3125 374.4,23.1719 L374.4,24.0938 Q374.4,25.125 375.2438,25.8125 Q376.0875,26.5 377.5875,26.5 Q378.4781,26.5 379.1031,26.2969 Q379.4625,26.1875 379.8688,25.8281 Q380.1344,25.625 380.275,25.5625 Q380.4156,25.5 380.5875,25.5 Q380.9156,25.5 381.15,25.7656 Q381.4,26.0156 381.4,26.375 Q381.4,26.7188 381.0563,27.125 Q380.5563,27.7188 379.7594,28.0469 Q378.7125,28.5 377.4313,28.5 Q375.9313,28.5 374.7281,27.9063 Q373.7594,27.4375 373.0719,26.4219 Q372.4,25.4063 372.4,24.2031 L372.4,23.1094 Q372.4,21.8594 372.9938,20.7656 Q373.6031,19.6719 374.65,19.0938 Q375.7125,18.5 376.9,18.5 Q377.6188,18.5 378.2438,18.75 Q378.8688,19 379.4,19.5 Z " fill="#000000"/><text fill="#000000" font-family="sans-serif" font-size="12" lengthAdjust="spacingAndGlyphs" textLength="27" x="396.6" y="27.9102">User</text><line style="stroke:#A80036;stroke-width:1.5;" x1="340" x2="449" y1="39" y2="39"/><text fill="#000000" font-family="sans-serif" font-size="11" lengthAdjust="spacingAndGlyphs" textLength="89" x="345" y="54.4189">+string LoginName</text><text fill="#000000" font-family="sans-serif" font-size="11" lengthAdjust="spacingAndGlyphs" textLength="81" x="345" y="68.2549">+string NameTag</text><text fill="#000000" font-family="sans-serif" font-size="11" lengthAdjust="spacingAndGlyphs" textLength="51" x="345" y="82.0908">+string Bio</text><text fill="#000000" font-family="sans-serif" font-size="11" lengthAdjust="spacingAndGlyphs" textLength="67" x="345" y="95.9268">+string Status</text><text fill="#000000" font-family="sans-serif" font-size="11" lengthAdjust="spacingAndGlyphs" textLength="55" x="345" y="109.7627">+double Elo</text><text fill="#000000" font-family="sans-serif" font-size="11" lengthAdjust="spacingAndGlyphs" textLength="68" x="345" y="123.5986">+double Coins</text><text fill="#000000" font-family="sans-serif" font-size="11" lengthAdjust="spacingAndGlyphs" textLength="90" x="345" y="137.4346">+List&lt;ICard&gt; Stack</text><text fill="#000000" font-family="sans-serif" font-size="11" lengthAdjust="spacingAndGlyphs" textLength="99" x="345" y="151.2705">+List&lt;ICard&gt;[4] Deck</text><line style="stroke:#A80036;stroke-width:1.5;" x1="340" x2="449" y1="157.6875" y2="157.6875"/><text fill="#000000" font-family="sans-serif" font-size="11" lengthAdjust="spacingAndGlyphs" textLength="93" x="345" y="173.1064">+GetGameHistory()</text><!--MD5=[6197423a059df3745aafada0414fd692]
class Client / Curl Script--><rect codeLine="60" fill="#FEFECE" filter="url(#f11gktmunm3l5p)" height="227.8672" id="Client / Curl Script" style="stroke:#A80036;stroke-width:1.5;" width="146" x="22.5" y="254"/><ellipse cx="44.7" cy="270" fill="#ADD1B2" rx="11" ry="11" style="stroke:#A80036;stroke-width:1.0;"/><path d="M46.7,266.5 Q46.9031,266 47.1375,265.75 Q47.3719,265.5 47.6375,265.5 Q48.1063,265.5 48.4031,265.7813 Q48.7,266.0625 48.7,266.7188 L48.7,268.2813 Q48.7,268.9375 48.4188,269.2188 Q48.1375,269.5 47.7,269.5 Q47.3094,269.5 47.0594,269.3281 Q46.8094,269.1563 46.7,268.7031 Q46.6531,268.3906 46.4813,268.2188 Q46.1688,267.8906 45.6063,267.7031 Q45.0438,267.5 44.4813,267.5 Q43.7781,267.5 43.1844,267.7813 Q42.6063,268.0625 42.1531,268.6875 Q41.7,269.3125 41.7,270.1719 L41.7,271.0938 Q41.7,272.125 42.5438,272.8125 Q43.3875,273.5 44.8875,273.5 Q45.7781,273.5 46.4031,273.2969 Q46.7625,273.1875 47.1688,272.8281 Q47.4344,272.625 47.575,272.5625 Q47.7156,272.5 47.8875,272.5 Q48.2156,272.5 48.45,272.7656 Q48.7,273.0156 48.7,273.375 Q48.7,273.7188 48.3563,274.125 Q47.8563,274.7188 47.0594,275.0469 Q46.0125,275.5 44.7313,275.5 Q43.2313,275.5 42.0281,274.9063 Q41.0594,274.4375 40.3719,273.4219 Q39.7,272.4063 39.7,271.2031 L39.7,270.1094 Q39.7,268.8594 40.2938,267.7656 Q40.9031,266.6719 41.95,266.0938 Q43.0125,265.5 44.2,265.5 Q44.9188,265.5 45.5438,265.75 Q46.1688,266 46.7,266.5 Z " fill="#000000"/><text fill="#000000" font-family="sans-serif" font-size="12" lengthAdjust="spacingAndGlyphs" textLength="98" x="60.3" y="274.9102">Client / Curl Script</text><line style="stroke:#A80036;stroke-width:1.5;" x1="23.5" x2="167.5" y1="286" y2="286"/><line style="stroke:#A80036;stroke-width:1.5;" x1="23.5" x2="167.5" y1="294" y2="294"/><text fill="#000000" font-family="sans-serif" font-size="11" lengthAdjust="spacingAndGlyphs" textLength="54" x="28.5" y="309.4189">+Register()</text><text fill="#000000" font-family="sans-serif" font-size="11" lengthAdjust="spacingAndGlyphs" textLength="40" x="28.5" y="323.2549">+Login()</text><text fill="#000000" font-family="sans-serif" font-size="11" lengthAdjust="spacingAndGlyphs" textLength="87" x="28.5" y="337.0908">+CreatePackage()</text><text fill="#000000" font-family="sans-serif" font-size="11" lengthAdjust="spacingAndGlyphs" textLength="93" x="28.5" y="350.9268">+AcquirePackage()</text><text fill="#000000" font-family="sans-serif" font-size="11" lengthAdjust="spacingAndGlyphs" textLength="134" x="28.5" y="364.7627">+ShowAcquiredPackages()</text><text fill="#000000" font-family="sans-serif" font-size="11" lengthAdjust="spacingAndGlyphs" textLength="67" x="28.5" y="378.5986">+ShowDeck()</text><text fill="#000000" font-family="sans-serif" font-size="11" lengthAdjust="spacingAndGlyphs" textLength="85" x="28.5" y="392.4346">+ConfigureDeck()</text><text fill="#000000" font-family="sans-serif" font-size="11" lengthAdjust="spacingAndGlyphs" textLength="76" x="28.5" y="406.2705">+EditUserData()</text><text fill="#000000" font-family="sans-serif" font-size="11" lengthAdjust="spacingAndGlyphs" textLength="74" x="28.5" y="420.1064">+DisplayStats()</text><text fill="#000000" font-family="sans-serif" font-size="11" lengthAdjust="spacingAndGlyphs" textLength="106" x="28.5" y="433.9424">+DisplayScoreboard()</text><text fill="#000000" font-family="sans-serif" font-size="11" lengthAdjust="spacingAndGlyphs" textLength="41" x="28.5" y="447.7783">+Battle()</text><text fill="#000000" font-family="sans-serif" font-size="11" lengthAdjust="spacingAndGlyphs" textLength="104" x="28.5" y="461.6143">+DisplayTradeDeals()</text><text fill="#000000" font-family="sans-serif" font-size="11" lengthAdjust="spacingAndGlyphs" textLength="103" x="28.5" y="475.4502">+CreateTradingDeal()</text><!--MD5=[f4a1549148b57c5305fbb95453e36625]
class TradeDeal--><rect codeLine="77" fill="#FEFECE" filter="url(#f11gktmunm3l5p)" height="131.0156" id="TradeDeal" style="stroke:#A80036;stroke-width:1.5;" width="408" x="203.5" y="302.5"/><ellipse cx="374.25" cy="318.5" fill="#ADD1B2" rx="11" ry="11" style="stroke:#A80036;stroke-width:1.0;"/><path d="M376.25,315 Q376.4531,314.5 376.6875,314.25 Q376.9219,314 377.1875,314 Q377.6563,314 377.9531,314.2813 Q378.25,314.5625 378.25,315.2188 L378.25,316.7813 Q378.25,317.4375 377.9688,317.7188 Q377.6875,318 377.25,318 Q376.8594,318 376.6094,317.8281 Q376.3594,317.6563 376.25,317.2031 Q376.2031,316.8906 376.0313,316.7188 Q375.7188,316.3906 375.1563,316.2031 Q374.5938,316 374.0313,316 Q373.3281,316 372.7344,316.2813 Q372.1563,316.5625 371.7031,317.1875 Q371.25,317.8125 371.25,318.6719 L371.25,319.5938 Q371.25,320.625 372.0938,321.3125 Q372.9375,322 374.4375,322 Q375.3281,322 375.9531,321.7969 Q376.3125,321.6875 376.7188,321.3281 Q376.9844,321.125 377.125,321.0625 Q377.2656,321 377.4375,321 Q377.7656,321 378,321.2656 Q378.25,321.5156 378.25,321.875 Q378.25,322.2188 377.9063,322.625 Q377.4063,323.2188 376.6094,323.5469 Q375.5625,324 374.2813,324 Q372.7813,324 371.5781,323.4063 Q370.6094,322.9375 369.9219,321.9219 Q369.25,320.9063 369.25,319.7031 L369.25,318.6094 Q369.25,317.3594 369.8438,316.2656 Q370.4531,315.1719 371.5,314.5938 Q372.5625,314 373.75,314 Q374.4688,314 375.0938,314.25 Q375.7188,314.5 376.25,315 Z " fill="#000000"/><text fill="#000000" font-family="sans-serif" font-size="12" lengthAdjust="spacingAndGlyphs" textLength="58" x="394.75" y="323.4102">TradeDeal</text><line style="stroke:#A80036;stroke-width:1.5;" x1="204.5" x2="610.5" y1="334.5" y2="334.5"/><text fill="#000000" font-family="sans-serif" font-size="11" lengthAdjust="spacingAndGlyphs" textLength="37" x="209.5" y="349.9189">-Guid Id</text><text fill="#000000" font-family="sans-serif" font-size="11" lengthAdjust="spacingAndGlyphs" textLength="82" x="209.5" y="363.7549">-string username</text><text fill="#000000" font-family="sans-serif" font-size="11" lengthAdjust="spacingAndGlyphs" textLength="61" x="209.5" y="377.5908">-ICard _Card</text><text fill="#000000" font-family="sans-serif" font-size="11" lengthAdjust="spacingAndGlyphs" textLength="121" x="209.5" y="391.4268">-CardType _WantedType</text><text fill="#000000" font-family="sans-serif" font-size="11" lengthAdjust="spacingAndGlyphs" textLength="100" x="209.5" y="405.2627">-double _MinDamage</text><line style="stroke:#A80036;stroke-width:1.5;" x1="204.5" x2="610.5" y1="411.6797" y2="411.6797"/><text fill="#000000" font-family="sans-serif" font-size="11" lengthAdjust="spacingAndGlyphs" textLength="396" x="209.5" y="427.0986">+TradeDeal(string id, string username, ICard card, CardType type, double minDmg)</text><!--MD5=[c60af77fe5573b84a4aa4bce89659574]
class Server--><rect codeLine="86" fill="#FEFECE" filter="url(#f11gktmunm3l5p)" height="255.5391" id="Server" style="stroke:#A80036;stroke-width:1.5;" width="412" x="646.5" y="240"/><ellipse cx="830.75" cy="256" fill="#ADD1B2" rx="11" ry="11" style="stroke:#A80036;stroke-width:1.0;"/><path d="M832.75,252.5 Q832.9531,252 833.1875,251.75 Q833.4219,251.5 833.6875,251.5 Q834.1563,251.5 834.4531,251.7813 Q834.75,252.0625 834.75,252.7188 L834.75,254.2813 Q834.75,254.9375 834.4688,255.2188 Q834.1875,255.5 833.75,255.5 Q833.3594,255.5 833.1094,255.3281 Q832.8594,255.1563 832.75,254.7031 Q832.7031,254.3906 832.5313,254.2188 Q832.2188,253.8906 831.6563,253.7031 Q831.0938,253.5 830.5313,253.5 Q829.8281,253.5 829.2344,253.7813 Q828.6563,254.0625 828.2031,254.6875 Q827.75,255.3125 827.75,256.1719 L827.75,257.0938 Q827.75,258.125 828.5938,258.8125 Q829.4375,259.5 830.9375,259.5 Q831.8281,259.5 832.4531,259.2969 Q832.8125,259.1875 833.2188,258.8281 Q833.4844,258.625 833.625,258.5625 Q833.7656,258.5 833.9375,258.5 Q834.2656,258.5 834.5,258.7656 Q834.75,259.0156 834.75,259.375 Q834.75,259.7188 834.4063,260.125 Q833.9063,260.7188 833.1094,261.0469 Q832.0625,261.5 830.7813,261.5 Q829.2813,261.5 828.0781,260.9063 Q827.1094,260.4375 826.4219,259.4219 Q825.75,258.4063 825.75,257.2031 L825.75,256.1094 Q825.75,254.8594 826.3438,253.7656 Q826.9531,252.6719 828,252.0938 Q829.0625,251.5 830.25,251.5 Q830.9688,251.5 831.5938,251.75 Q832.2188,252 832.75,252.5 Z " fill="#000000"/><text fill="#000000" font-family="sans-serif" font-size="12" lengthAdjust="spacingAndGlyphs" textLength="35" x="851.25" y="260.9102">Server</text><line style="stroke:#A80036;stroke-width:1.5;" x1="647.5" x2="1057.5" y1="272" y2="272"/><text fill="#000000" font-family="sans-serif" font-size="11" lengthAdjust="spacingAndGlyphs" textLength="93" x="652.5" y="287.4189">-List&lt;User&gt; _users</text><text fill="#000000" font-family="sans-serif" font-size="11" lengthAdjust="spacingAndGlyphs" textLength="137" x="652.5" y="301.2549">-List&lt;User&gt; _usersLoggedIn</text><text fill="#000000" font-family="sans-serif" font-size="11" lengthAdjust="spacingAndGlyphs" textLength="131" x="652.5" y="315.0908">-Dict&lt;string, User&gt; _tokens</text><text fill="#000000" font-family="sans-serif" font-size="11" lengthAdjust="spacingAndGlyphs" textLength="164" x="652.5" y="328.9268">-List&lt;ICard[5]&gt; AvailablePackages</text><text fill="#000000" font-family="sans-serif" font-size="11" lengthAdjust="spacingAndGlyphs" textLength="140" x="652.5" y="342.7627">-List&lt;TradeDeal&gt; TradeDeals</text><line style="stroke:#A80036;stroke-width:1.5;" x1="647.5" x2="1057.5" y1="349.1797" y2="349.1797"/><text fill="#000000" font-family="sans-serif" font-size="11" lengthAdjust="spacingAndGlyphs" textLength="234" x="652.5" y="364.5986">+string Login(string username, string password)</text><text fill="#000000" font-family="sans-serif" font-size="11" lengthAdjust="spacingAndGlyphs" textLength="400" x="652.5" y="378.4346">+string Register(string username, string password, optional: NameTag, Bio, Status)</text><text fill="#000000" font-family="sans-serif" font-size="11" lengthAdjust="spacingAndGlyphs" textLength="155" x="652.5" y="392.2705">+bool VerifyToken(string Token)</text><text fill="#000000" font-family="sans-serif" font-size="11" lengthAdjust="spacingAndGlyphs" textLength="168" x="652.5" y="406.1064">+string QueueForGame(User user)</text><text fill="#000000" font-family="sans-serif" font-size="11" lengthAdjust="spacingAndGlyphs" textLength="194" x="652.5" y="419.9424">+string SimulateGame(User u1, User u2)</text><text fill="#000000" font-family="sans-serif" font-size="11" lengthAdjust="spacingAndGlyphs" textLength="118" x="652.5" y="433.7783">+string GetStats(User u)</text><text fill="#000000" font-family="sans-serif" font-size="11" lengthAdjust="spacingAndGlyphs" textLength="118" x="652.5" y="447.6143">+string GetScoreboard()</text><text fill="#000000" font-family="sans-serif" font-size="11" lengthAdjust="spacingAndGlyphs" textLength="243" x="652.5" y="461.4502">+string RegisterCardForTrade(user u, Guid cardId)</text><text fill="#000000" font-family="sans-serif" font-size="11" lengthAdjust="spacingAndGlyphs" textLength="128" x="652.5" y="475.2861">+string GetAllTradeDeals()</text><text fill="#000000" font-family="sans-serif" font-size="11" lengthAdjust="spacingAndGlyphs" textLength="224" x="652.5" y="489.1221">+string TradeCard(string cardId, string tradeId)</text><!--MD5=[35732ce94d73a1e5a4fef6749b9d4968]
reverse link ICard to AbstractCard--><path codeLine="20" d="M1111.5,172.2 C1111.5,275.3 1111.5,455.89 1111.5,555.85 " fill="none" id="ICard-backto-AbstractCard" style="stroke:#A80036;stroke-width:1.0;"/><polygon fill="none" points="1104.5,172.05,1111.5,152.05,1118.5,172.05,1104.5,172.05" style="stroke:#A80036;stroke-width:1.0;"/><!--MD5=[7c74489b18a44a96cdf5796d590d71dd]
reverse link AbstractCard to MonsterCard--><path codeLine="44" d="M1059.05,718.78 C1050.36,733.56 1041.8,748.12 1034.44,760.66 " fill="none" id="AbstractCard-backto-MonsterCard" style="stroke:#A80036;stroke-width:1.0;"/><polygon fill="none" points="1053.06,715.15,1069.23,701.45,1065.13,722.24,1053.06,715.15" style="stroke:#A80036;stroke-width:1.0;"/><!--MD5=[eccd8531726fd3d2a5b16f9bcd92e070]
reverse link AbstractCard to SpellCard--><path codeLine="45" d="M1164.51,718.83 C1176.81,739.54 1188.85,759.84 1197.67,774.7 " fill="none" id="AbstractCard-backto-SpellCard" style="stroke:#A80036;stroke-width:1.0;"/><polygon fill="none" points="1158.39,722.22,1154.2,701.45,1170.43,715.07,1158.39,722.22" style="stroke:#A80036;stroke-width:1.0;"/><!--MD5=[072c11591247d7dff7beca7f4304b577]
link MonsterCardCreatureType to CardType--><!--MD5=[37edb988ad6bc0838838b4024f001986]
link CardType to User--><!--MD5=[89519860ce28ecd358ac7aaa6450b371]
link MonsterCardCreatureType to Client / Curl Script--><!--MD5=[f39dcb8709eb5fabf4d5bd6853c6d7bc]
link Client / Curl Script to TradeDeal--><!--MD5=[e08b7e72a50fe7ab1da257f132e3ff0a]
link TradeDeal to Server--><!--MD5=[6a4e8d226b99620f3c1cf3e7318d83b5]
@startuml
skinparam classAttributeIconSize 0

Interface ICard{
 +Guid Id
 +double Damage
 +string Name
 +CardType Type
 +double GetAttackValue(ICard other)
}

class AbstractCard{
 +Guid Id
 +double Damage
 +string Name
 +CardType Type
 +double GetAttackValue(ICard other)
 +double GetEffectivenessMultiplier(ICard other)
 +int Battle(ICard card1, ICard card2)
}
ICard <|- - - AbstractCard

class MonsterCard{
 -MonsterCardCreatureType _type
 +MonsterCardCreatureType GetCreatureType()
}
enum MonsterCardCreatureType{
 Human
 Goblin
 Wizard
 Dragon
 Ork
 Knight
 Kraken
 FireElv
}

class SpellCard{
}
enum CardType{
 Normal
 Water
 Fire
}
AbstractCard <|- - MonsterCard
AbstractCard <|- - SpellCard

class User{
 +string LoginName
 +string NameTag
 +string Bio
 +string Status
 +double Elo
 +double Coins
 +List<ICard> Stack
 +GetGameHistory()
 +List<ICard>[4] Deck
}


class "Client / Curl Script"{
 +Register()
 +Login()
 +CreatePackage()
 +AcquirePackage()
 +ShowAcquiredPackages()
 +ShowDeck()
 +ConfigureDeck()
 +EditUserData()
 +DisplayStats()
 +DisplayScoreboard()
 +Battle()
 +DisplayTradeDeals()
 +CreateTradingDeal() 
}


class TradeDeal {
 -Guid Id
 -string username
 -ICard _Card
 -CardType _WantedType
 -double _MinDamage
 +TradeDeal(string id, string username, ICard card, CardType type, double minDmg)
}

class Server{
 -List<User> _users
 -List<User> _usersLoggedIn
 -Dict<string, User> _tokens
 -List<ICard[5]> AvailablePackages
 -List<TradeDeal> TradeDeals
 +string Login(string username, string password)
 +string Register(string username, string password, optional: NameTag, Bio, Status)
 +bool VerifyToken(string Token)
 +string QueueForGame(User user)
 +string SimulateGame(User u1, User u2)
 +string GetStats(User u)
 +string GetScoreboard()
 +string RegisterCardForTrade(user u, Guid cardId)
 +string GetAllTradeDeals()
 +string TradeCard(string cardId, string tradeId)
 
}

@enduml

PlantUML version 1.2020.23(Sun Dec 13 20:14:58 CET 2020)
(GPL source distribution)
Java Runtime: OpenJDK Runtime Environment
JVM: OpenJDK 64-Bit Server VM
Default Encoding: Cp1252
Language: en
Country: US
--></g></svg>